<svg version="1.2" xmlns="http://www.w3.org/2000/svg" viewBox="0 0 1540 1255" width="1540" height="1255">
	<title>AKE</title>
	<defs>
		<clipPath clipPathUnits="userSpaceOnUse" id="cp1">
			<path d="m0 0.83h9725.62v1271.46h-9725.62z"/>
		</clipPath>
		<linearGradient id="g1" x1="0" y1="636.4" x2="9725.9" y2="636.4" gradientUnits="userSpaceOnUse">
			<stop offset=".35" stop-color="#28285f"/>
			<stop offset=".7" stop-color="#55be9b"/>
		</linearGradient>
	</defs>
	<style>
		.s0 { fill: url(#g1) } 
	</style>
	<g id="Clip-Path: Clip-Path" clip-path="url(#cp1)">
		<g id="Clip-Path">
			<g id="g197">
				<path id="Layer" fill-rule="evenodd" class="s0" d="m859.5 11.6c117.3 30.9 182.9 123.6 232.1 235.2l448.4 1008.2h-292.6l-155.8-357.5h-643.2l-155.8 356.8h-292.6l447.7-1008.1c58.1-134.3 146.3-245.9 321.6-245.9 30.3 0 60.6 3.7 90.2 10.7zm126.8 645l-143.8-331c-17.7-38.5-34.1-54.3-53-59.9q-10.1-2.6-20.8-2.6c-29 0-49.2 11.4-73.1 63.1l-143.8 331z"/>
			</g>
		</g>
	</g>
</svg>