<?xml version="1.0" encoding="UTF-8"?>
<!DOCTYPE svg PUBLIC "-//W3C//DTD SVG 1.1//EN" "http://www.w3.org/Graphics/SVG/1.1/DTD/svg11.dtd">
<svg xmlns="http://www.w3.org/2000/svg" version="1.1" width="508px" height="545px" style="shape-rendering:geometricPrecision; text-rendering:geometricPrecision; image-rendering:optimizeQuality; fill-rule:evenodd; clip-rule:evenodd" xmlns:xlink="http://www.w3.org/1999/xlink">
<g><path style="opacity:1" fill="#ffffff" d="M 233.5,-0.5 C 234.167,-0.5 234.833,-0.5 235.5,-0.5C 250.664,2.83369 265.998,6.00036 281.5,9C 276.994,30.2002 272.994,51.5335 269.5,73C 269.585,74.1074 269.919,75.1074 270.5,76C 286.451,78.9928 302.451,81.3261 318.5,83C 322.945,61.274 326.945,39.4407 330.5,17.5C 346.468,20.0503 362.468,22.3836 378.5,24.5C 374.442,46.8484 370.609,69.1817 367,91.5C 399.467,97.6556 430.634,107.822 460.5,122C 478.492,132.325 491.992,146.825 501,165.5C 502.949,169.629 504.116,173.963 504.5,178.5C 505.33,185.429 504.997,192.429 503.5,199.5C 504.093,201.382 504.76,203.215 505.5,205C 505.263,207.288 505.263,209.788 505.5,212.5C 501.821,246.33 483.821,268.163 451.5,278C 449.398,279.733 449.065,281.733 450.5,284C 483.505,296.85 500.838,321.017 502.5,356.5C 504.018,362.494 502.018,365.494 496.5,365.5C 496.977,366.478 497.643,367.311 498.5,368C 497.5,368.333 496.5,368.667 495.5,369C 496.833,370.667 498.167,372.333 499.5,374C 498.636,375.137 497.636,376.47 496.5,378C 497.715,380.096 498.549,379.929 499,377.5C 499.617,380.035 499.117,382.368 497.5,384.5C 498.902,385.842 498.569,386.676 496.5,387C 497.022,389.289 496.355,391.456 494.5,393.5C 495.325,394.386 496.325,394.719 497.5,394.5C 485.391,436.106 458.058,461.272 415.5,470C 405.089,471.947 394.589,473.113 384,473.5C 363.033,472.024 342.2,469.857 321.5,467C 315.923,492.718 310.923,518.552 306.5,544.5C 305.833,544.5 305.167,544.5 304.5,544.5C 289.652,541.378 274.652,538.378 259.5,535.5C 263.572,510.804 267.905,486.137 272.5,461.5C 272.43,460.228 272.097,459.062 271.5,458C 256.641,455.687 241.808,453.187 227,450.5C 225.289,450.439 223.956,451.106 223,452.5C 218.433,477.166 213.933,501.833 209.5,526.5C 203.099,525.349 196.765,524.016 190.5,522.5C 189.152,521.399 187.652,520.399 186,519.5C 184.984,520.634 184.317,520.301 184,518.5C 182.601,518.501 181.101,518.835 179.5,519.5C 178.719,518.271 178.219,516.938 178,515.5C 177.282,516.451 176.449,516.617 175.5,516C 176.863,513.871 176.529,513.371 174.5,514.5C 173.281,513.737 172.281,512.737 171.5,511.5C 170.914,511.709 170.414,512.043 170,512.5C 169.355,511.354 168.522,510.354 167.5,509.5C 168.629,507.471 168.129,507.137 166,508.5C 164.563,506.129 165.229,504.129 168,502.5C 167.649,500.114 167.815,497.781 168.5,495.5C 168.205,496.826 168.705,498.159 170,499.5C 170.402,498.128 170.902,496.795 171.5,495.5C 170.975,494.808 170.308,494.308 169.5,494C 172.358,491.806 172.858,489.306 171,486.5C 170.83,488.715 170.163,490.715 169,492.5C 168.383,491.551 168.549,490.718 169.5,490C 168.934,489.005 168.267,488.172 167.5,487.5C 170.204,472.155 172.704,456.822 175,441.5C 160.627,437.615 146.127,434.115 131.5,431C 94.5944,422.375 63.4277,404.209 38,376.5C 23.851,359.441 13.851,340.108 8,318.5C 4.43719,305.177 1.60386,291.844 -0.5,278.5C -0.5,277.833 -0.5,277.167 -0.5,276.5C 0.267389,275.828 0.934056,274.995 1.5,274C 0.85993,269.732 0.193263,265.565 -0.5,261.5C -0.5,260.833 -0.5,260.167 -0.5,259.5C 1.18982,195.626 25.5232,142.126 72.5,99C 116.724,65.6858 166.058,54.6858 220.5,66C 225.426,43.9439 229.759,21.7772 233.5,-0.5 Z M 198.5,374.5 C 187.81,374.679 177.143,374.345 166.5,373.5C 102.371,361.938 72.8711,323.605 78,258.5C 79.0495,222.018 90.0495,189.018 111,159.5C 133.648,131.942 162.815,120.442 198.5,125C 217.635,127.784 236.302,132.45 254.5,139C 255.574,139.739 256.241,140.739 256.5,142C 241.306,217.969 227.14,294.135 214,370.5C 213.691,371.766 213.191,372.933 212.5,374C 207.845,374.499 203.179,374.666 198.5,374.5 Z M 333.5,147.5 C 355.291,149.781 376.624,154.281 397.5,161C 428.491,176.538 435.658,199.704 419,230.5C 413.611,237.553 406.778,242.72 398.5,246C 389.827,248.513 380.994,250.013 372,250.5C 353.394,248.788 335.06,245.788 317,241.5C 321.311,209.971 326.811,178.637 333.5,147.5 Z M 371.5,408.5 C 359.45,408.631 347.45,407.964 335.5,406.5C 319.315,404.302 303.315,401.136 287.5,397C 286.941,396.275 286.608,395.442 286.5,394.5C 292.86,361.535 299.026,328.535 305,295.5C 306.473,293.993 308.307,293.326 310.5,293.5C 333.286,296.28 355.619,301.113 377.5,308C 393.675,312.655 406.509,321.822 416,335.5C 424.063,353.299 423.063,370.633 413,387.5C 402.446,401.027 388.612,408.027 371.5,408.5 Z"/></g>
<g><path style="opacity:1" fill="#ffffff" d="M 504.5,178.5 C 505.861,182.759 506.861,187.093 507.5,191.5C 507.5,195.5 507.5,199.5 507.5,203.5C 506.833,206.5 506.167,209.5 505.5,212.5C 505.263,209.788 505.263,207.288 505.5,205C 504.76,203.215 504.093,201.382 503.5,199.5C 504.997,192.429 505.33,185.429 504.5,178.5 Z"/></g>
<g><path style="opacity:1" fill="#ffffff" d="M -0.5,261.5 C 0.193263,265.565 0.85993,269.732 1.5,274C 0.934056,274.995 0.267389,275.828 -0.5,276.5C -0.5,271.5 -0.5,266.5 -0.5,261.5 Z"/></g>
<g><path style="opacity:1" fill="#ffffff" d="M 166.5,373.5 C 177.143,374.345 187.81,374.679 198.5,374.5C 190.01,375.33 181.343,375.83 172.5,376C 173.328,376.915 174.328,377.581 175.5,378C 175.018,379.008 174.852,380.175 175,381.5C 174,380.167 173,378.833 172,377.5C 171.383,378.449 171.549,379.282 172.5,380C 171.256,380.456 170.423,379.956 170,378.5C 169.667,379.5 169.333,380.5 169,381.5C 168.458,378.708 167.624,376.042 166.5,373.5 Z"/></g>
<g><path style="opacity:1" fill="#ffffff" d="M 502.5,356.5 C 503.628,369.47 501.962,382.136 497.5,394.5C 496.325,394.719 495.325,394.386 494.5,393.5C 496.355,391.456 497.022,389.289 496.5,387C 498.569,386.676 498.902,385.842 497.5,384.5C 499.117,382.368 499.617,380.035 499,377.5C 498.549,379.929 497.715,380.096 496.5,378C 497.636,376.47 498.636,375.137 499.5,374C 498.167,372.333 496.833,370.667 495.5,369C 496.5,368.667 497.5,368.333 498.5,368C 497.643,367.311 496.977,366.478 496.5,365.5C 502.018,365.494 504.018,362.494 502.5,356.5 Z"/></g>
<g><path style="opacity:1" fill="#ffffff" d="M 335.5,406.5 C 347.45,407.964 359.45,408.631 371.5,408.5C 370.828,409.267 369.995,409.934 369,410.5C 367.951,409.483 366.784,409.316 365.5,410C 366.833,410.667 366.833,411.333 365.5,412C 361.5,412.333 357.5,412.667 353.5,413C 354.28,414.073 354.113,415.24 353,416.5C 350.116,413.971 346.95,411.804 343.5,410C 344.696,409.346 344.696,408.846 343.5,408.5C 342.402,412.361 341.569,412.361 341,408.5C 338.336,409.763 336.503,409.096 335.5,406.5 Z"/></g>
<g><path style="opacity:1" fill="#ffffff" d="M 190.5,522.5 C 181.502,521.067 172.502,519.567 163.5,518C 162.692,517.692 162.025,517.192 161.5,516.5C 163.349,506.775 165.349,497.108 167.5,487.5C 168.267,488.172 168.934,489.005 169.5,490C 168.549,490.718 168.383,491.551 169,492.5C 170.163,490.715 170.83,488.715 171,486.5C 172.858,489.306 172.358,491.806 169.5,494C 170.308,494.308 170.975,494.808 171.5,495.5C 170.902,496.795 170.402,498.128 170,499.5C 168.705,498.159 168.205,496.826 168.5,495.5C 167.815,497.781 167.649,500.114 168,502.5C 165.229,504.129 164.563,506.129 166,508.5C 168.129,507.137 168.629,507.471 167.5,509.5C 168.522,510.354 169.355,511.354 170,512.5C 170.414,512.043 170.914,511.709 171.5,511.5C 172.281,512.737 173.281,513.737 174.5,514.5C 176.529,513.371 176.863,513.871 175.5,516C 176.449,516.617 177.282,516.451 178,515.5C 178.219,516.938 178.719,518.271 179.5,519.5C 181.101,518.835 182.601,518.501 184,518.5C 184.317,520.301 184.984,520.634 186,519.5C 187.652,520.399 189.152,521.399 190.5,522.5 Z"/></g>
</svg>
