<?xml version="1.0" encoding="UTF-8" standalone="no"?>
<svg
   xmlns:dc="http://purl.org/dc/elements/1.1/"
   xmlns:cc="http://creativecommons.org/ns#"
   xmlns:rdf="http://www.w3.org/1999/02/22-rdf-syntax-ns#"
   xmlns:svg="http://www.w3.org/2000/svg"
   xmlns="http://www.w3.org/2000/svg"
   xmlns:sodipodi="http://sodipodi.sourceforge.net/DTD/sodipodi-0.dtd"
   xmlns:inkscape="http://www.inkscape.org/namespaces/inkscape"
   inkscape:output_extension="org.inkscape.output.svg.inkscape"
   sodipodi:docname="Louis_Vuitton_logo_and_wordmark.svg"
   inkscape:version="1.0 (4035a4fb49, 2020-05-01)"
   sodipodi:version="0.32"
   id="svg2"
   version="1.0"
   viewBox="0 0 815 980"
   height="300"
   width="246">
  <metadata
     id="metadata32">
    <rdf:RDF>
      <cc:Work
         rdf:about="">
        <dc:format>image/svg+xml</dc:format>
        <dc:type
           rdf:resource="http://purl.org/dc/dcmitype/StillImage" />
        <dc:title></dc:title>
      </cc:Work>
    </rdf:RDF>
  </metadata>
  <defs
     id="defs30">
    <inkscape:perspective
       id="perspective34"
       inkscape:persp3d-origin="509.375 : 408.33333 : 1"
       inkscape:vp_z="1018.75 : 612.5 : 1"
       inkscape:vp_y="0 : 1000 : 0"
       inkscape:vp_x="0 : 612.5 : 1"
       sodipodi:type="inkscape:persp3d" />
  </defs>
  <sodipodi:namedview
     inkscape:window-maximized="1"
     inkscape:document-rotation="0"
     inkscape:current-layer="svg2"
     inkscape:window-y="-9"
     inkscape:window-x="1911"
     inkscape:cy="159.12537"
     inkscape:cx="115.71298"
     inkscape:zoom="2.1334422"
     showgrid="false"
     id="base"
     pagecolor="#ffffff"
     bordercolor="#666666"
     borderopacity="1.0"
     objecttolerance="10.0"
     gridtolerance="10.0"
     guidetolerance="10.0"
     inkscape:pageopacity="0.0"
     inkscape:pageshadow="2"
     inkscape:window-width="1920"
     inkscape:window-height="1001" />
  <g
     id="path33">
    <path
       style="opacity:1;fill:#000000"
       id="path5"
       d="M 599.07,6.2 C 667.63,6.2 736.2,6.19 804.76,6.21 C 804.8,21.65 804.68,37.1 804.83,52.55 C 787.41,53.31 769.6,55.26 753.56,62.55 C 737.29,69.86 723.65,83.16 716.63,99.63 C 633.26,295.61 549.95,491.61 466.67,687.63 C 465.23,690.85 464.07,694.18 462.39,697.29 C 432.57,696.94 402.74,697.24 372.92,697.13 C 359.76,670.98 346.81,644.72 333.54,618.63 C 318.33,659.39 303.03,700.11 287.82,740.86 C 386.19,740.87 484.56,740.86 582.93,740.87 C 600.94,741.11 619.49,740.36 636.34,733.32 C 664.34,722.07 686.63,700.33 704.77,676.76 C 726.67,648.2 743.29,616.05 758.1,583.38 C 774.71,583.24 791.31,583.43 807.91,583.4 C 776.43,650.64 744.79,717.82 713.03,784.93 C 486.35,784.94 259.68,784.93 33,784.93 C 38.52,770.52 43.77,755.99 49.69,741.73 C 50.05,740.26 51.88,740.63 52.99,740.49 C 81.29,740.28 109.78,739.18 137.55,733.29 C 152,729.9 166.95,725.38 178.07,715.06 C 183.95,709.45 185.78,701.26 187.73,693.7 C 214.5,622.06 241.31,550.43 268.1,478.8 C 211.48,358.16 154.67,237.59 98.02,116.96 C 93.46,106.41 87.44,95.96 77.97,89.09 C 58.37,74.41 32.9,72.55 9.3,71.61 C 9.28,54.32 9.3,37.04 9.29,19.75 C 88.88,19.72 168.46,19.73 248.05,19.74 C 248.06,37.03 248.07,54.32 248.04,71.61 C 237.67,72.27 226.66,72.1 217.27,77.23 C 212.61,79.43 209.87,84.97 211.07,90.01 C 212.54,98.26 219.06,104.15 222.36,111.6 C 255.97,183.99 289.58,256.39 323.29,328.75 C 340.18,281.52 357.07,234.3 374.03,187.1 C 376.52,180.54 377.4,172.96 374.56,166.36 C 372.33,161.15 367.27,157.93 362.28,155.76 C 352.58,151.76 341.92,151.8 331.64,151.06 C 336.89,136.47 342.17,121.88 347.61,107.37 C 348.87,106.56 350.62,107.18 352.07,106.98 C 432.82,107.03 513.58,106.98 594.34,107.01 C 588.76,121.67 583.21,136.33 577.69,151.01 C 558.24,151.91 538.19,152.4 519.95,160 C 511.59,163.5 503.68,168.85 498.74,176.59 C 495.31,182.26 493.18,188.59 490.88,194.77 C 457.14,286.79 423.09,378.69 389.73,470.85 C 408.21,512.62 427.47,554.03 446.32,595.63 C 514.77,433.99 583.2,272.33 651.73,110.72 C 656.35,101 663.87,92.13 664.46,80.95 C 665.03,72.2 658.54,64.65 651.02,61.06 C 634.81,53.58 616.59,53.21 599.07,52.58 C 599.05,37.12 599.05,21.66 599.07,6.2 z" />
    <path
       style="opacity:1;fill:#000000"
       id="path7"
       d="M 723.54,876.54 C 745.15,898.92 766.59,921.45 787.99,944.02 C 787.96,923.04 788.08,902.05 788.06,881.07 C 791.76,881.08 795.46,881.04 799.17,880.99 C 799.18,910.94 799.18,940.9 799.17,970.85 C 777.54,948.58 756.23,926.01 734.71,903.63 C 734.74,924.74 734.66,945.86 734.65,966.98 C 730.94,967.01 727.24,967 723.54,967 C 723.53,936.84 723.52,906.69 723.54,876.54 z" />
    <path
       style="opacity:1;fill:#000000"
       id="path9"
       d="M 94.45,879.62 C 118.26,875.96 143.45,894.6 145.57,918.88 C 147.57,932.77 142.18,947.25 132.01,956.82 C 115.29,973.18 85.22,972.88 68.99,955.94 C 60.22,947.44 55.22,935.19 55.75,922.96 C 55.99,901.68 73.58,882.67 94.45,879.62 M 94.46,890.62 C 80.6,892.88 69.32,905.05 67.38,918.84 C 64.74,934.51 74.41,951.37 89.54,956.49 C 102.78,961.49 118.89,956.78 127.39,945.48 C 138.38,931.69 136.52,909.44 123,897.99 C 115.4,891.08 104.41,888.8 94.46,890.62 z" />
    <path
       style="opacity:1;fill:#000000"
       id="path11"
       d="M 266.39,884.25 C 278.59,875.09 298.52,878.88 305.56,892.72 C 302.62,894.38 299.68,896.05 296.74,897.71 C 291.45,889.44 278.56,887.42 271.45,894.44 C 268.44,896.64 268.77,900.67 269.09,903.98 C 269.95,908.3 274.55,910.13 277.94,912.16 C 286.68,916.76 297.18,919.41 303.32,927.75 C 310.17,937.06 309.04,950.92 301.57,959.54 C 293.76,968.99 279.48,971.29 268.56,966.34 C 260.18,962.2 255,953.45 253.32,944.48 C 257.07,943.59 260.84,942.77 264.6,941.93 C 264.98,950.11 271.33,958.38 279.97,958.53 C 291.63,959.8 300.9,944.64 294.11,934.97 C 286.86,925.1 272.88,924.96 264.54,916.43 C 254.72,908.4 255.71,891.09 266.39,884.25 z" />
    <path
       style="opacity:1;fill:#000000"
       id="path13"
       d="M 664.46,879.56 C 680.06,877.61 696.18,884.81 705.76,897.15 C 719.57,914.43 717.36,942 700.97,956.86 C 691.61,966.11 677.85,969.92 664.93,968.55 C 652.16,967.71 640.21,960.55 632.84,950.19 C 624.9,939.14 622.84,924.37 626.6,911.38 C 631.51,894.55 647.17,881.76 664.46,879.56 M 662.55,890.77 C 645.35,893.7 633.05,912.02 636.07,929.06 C 637.98,945.45 653.53,958.79 669.98,958.48 C 681.2,958.67 691.9,952.31 697.95,943.01 C 707.14,929.69 704.72,910.01 692.88,899.05 C 685.13,891.2 673.16,888.55 662.55,890.77 z" />
    <path
       style="opacity:1;fill:#000000"
       id="path15"
       d="M 18.23,881.01 C 21.78,880.99 25.33,880.99 28.88,881.01 C 28.89,906.4 28.87,931.8 28.89,957.19 C 37.71,957.21 46.52,957.19 55.34,957.2 C 55.36,960.46 55.36,963.72 55.35,966.99 C 42.97,967 30.6,967.01 18.23,966.99 C 18.24,938.33 18.24,909.67 18.23,881.01 z" />
    <path
       style="opacity:1;fill:#000000"
       id="path17"
       d="M 154.18,881.08 C 157.94,881.05 161.7,881.06 165.47,881.07 C 165.5,897.99 165.42,914.92 165.51,931.84 C 165.68,939.28 166.6,947.46 171.86,953.19 C 180.23,961.4 196.67,960.23 202.51,949.59 C 205.46,944.59 206.32,938.67 206.24,932.95 C 206.17,915.66 206.17,898.37 206.18,881.07 C 209.94,881.05 213.7,881.06 217.46,881.07 C 217.46,898.72 217.5,916.37 217.45,934.02 C 217.47,942.03 216.08,950.5 210.96,956.94 C 199.95,972.19 174.43,973.06 162.37,958.65 C 156.64,952.65 154.28,944.19 154.2,936.05 C 154.15,917.73 154.19,899.4 154.18,881.08 z" />
    <path
       style="opacity:1;fill:#000000"
       id="path19"
       d="M 231.35,881.02 C 235.05,880.98 238.76,880.99 242.47,881.01 C 242.47,909.67 242.48,938.33 242.46,967 C 238.76,967 235.05,967.01 231.34,966.98 C 231.36,938.33 231.36,909.67 231.35,881.02 z" />
    <path
       style="opacity:1;fill:#000000"
       id="path21"
       d="M 342.7,881.09 C 346.77,880.98 350.86,880.98 354.94,881 C 363.48,901.9 371.89,922.85 380.28,943.81 C 388.65,922.92 397.26,902.13 405.44,881.17 C 409.63,880.82 413.83,881.06 418.03,881 C 405.54,911.41 393,941.8 380.4,972.16 C 367.58,941.91 355.22,911.46 342.7,881.09 z" />
    <path
       style="opacity:1;fill:#000000"
       id="path23"
       d="M 423.12,880.99 C 426.82,881.04 430.52,881.08 434.23,881.07 C 434.36,897.73 434.21,914.4 434.35,931.06 C 434.61,938.97 435.22,947.94 441.26,953.8 C 448.23,959.77 459.33,960.14 466.77,954.83 C 471.1,951.75 473.48,946.63 474.42,941.53 C 475.9,932.75 475.37,923.82 475.47,914.96 C 475.53,903.67 475.54,892.38 475.52,881.09 C 479.08,881.05 482.65,881.06 486.22,881.07 C 486.38,896.73 486.25,912.38 486.29,928.04 C 486.54,937.75 486.23,948.29 480.32,956.49 C 469.97,971.42 446.15,973.03 433.05,960.9 C 426.5,954.84 423.21,945.9 423.16,937.08 C 423.06,918.38 423.14,899.69 423.12,880.99 z" />
    <path
       style="opacity:1;fill:#000000"
       id="path25"
       d="M 500.18,881.07 C 504.04,881.08 507.9,881.04 511.77,881 C 511.77,909.66 511.76,938.32 511.77,966.99 C 507.88,967 504,967 500.12,966.99 C 500.08,938.35 500.21,909.71 500.18,881.07 z" />
    <path
       style="opacity:1;fill:#000000"
       id="path27"
       d="M 518.71,881.07 C 553.38,881.1 588.04,881.01 622.71,881.02 C 622.7,884.45 622.7,887.88 622.71,891.32 C 616.06,891.35 609.42,891.32 602.78,891.33 C 602.75,916.55 602.77,941.77 602.77,966.99 C 598.9,967 595.04,967 591.17,966.99 C 591.15,941.77 591.24,916.55 591.13,891.33 C 577.52,891.35 563.91,891.32 550.3,891.34 C 550.28,916.56 550.3,941.77 550.29,966.99 C 546.74,967 543.19,967 539.65,966.99 C 539.64,941.77 539.66,916.56 539.64,891.34 C 532.66,891.32 525.69,891.35 518.71,891.32 C 518.7,887.9 518.7,884.48 518.71,881.07 z" />
  </g>
</svg>
