<?xml version="1.0" ?><!DOCTYPE svg  PUBLIC '-//W3C//DTD SVG 1.1//EN'  'http://www.w3.org/Graphics/SVG/1.1/DTD/svg11.dtd'><svg fill="#FFFFFF" enable-background="new 0 0 1024 1024" height="1024px" id="Layer_1" version="1.1" viewBox="0 0 1024 1024" width="1024px" xml:space="preserve" xmlns="http://www.w3.org/2000/svg" xmlns:xlink="http://www.w3.org/1999/xlink"><g><g><path clip-rule="evenodd" d="M740.89,756c-28.309,0-55.524,0-84.082,0     c25.013-128.633,49.92-256.731,74.87-385.048c2.393-0.235,4.366-0.598,6.34-0.598c54.214-0.014,108.435-0.436,162.637,0.308     c15.325,0.209,30.963,2.407,45.83,6.172c48.371,12.254,77.035,48.104,77.505,97.895c0.555,58.535-20.852,107.477-67.27,144.584     c-30.078,24.047-65.316,32.457-102.648,33.696c-28.259,0.938-56.565,0.536-84.85,0.393c-6.028-0.031-8.746,1.323-9.946,7.933     C753.575,692.714,747.181,723.972,740.89,756z M772.533,593.771c29.298-1.149,56.577-0.857,83.543-3.622     c35.227-3.61,60.276-22.646,70.639-57.123c4.966-16.519,8.088-34.049,8.864-51.264c1.226-27.24-10.242-42.684-37.258-46.387     c-30.764-4.22-62.115-4.167-93.836-6.004C793.706,484.828,783.354,538.097,772.533,593.771z" fill-rule="evenodd"/><path clip-rule="evenodd" d="M84.067,755.864c-28.285,0-55.791,0-84.067,0     c24.975-128.488,49.842-256.42,74.812-384.885c2.794-0.229,5.377-0.626,7.962-0.628c53.2-0.02,106.405-0.4,159.597,0.284     c15.001,0.191,30.306,2.131,44.881,5.689c47.914,11.694,75.555,42.038,79.199,91c7.108,95.563-56.826,162.972-120.058,178.417     c-16.871,4.123-34.456,6.414-51.818,7.192c-27.558,1.235-55.207,0.619-82.814,0.478c-5.688-0.029-8.127,1.439-9.244,7.51     C96.75,692.319,90.399,723.61,84.067,755.864z M115.668,593.756c29.109-1.132,56.396-0.816,83.367-3.585     c36.135-3.704,61.246-23.462,71.41-58.902c4.578-15.967,7.589-32.797,8.298-49.362c1.166-27.234-10.252-42.804-37.18-46.504     c-30.776-4.232-62.14-4.192-93.923-6.048C136.856,484.812,126.492,538.104,115.668,593.756z" fill-rule="evenodd"/><path clip-rule="evenodd" d="M425.175,268c28.362,0,55.53,0,83.411,0     c-6.596,34.203-13.07,67.788-19.73,102.324c22.678,0,44.557-0.764,66.357,0.213c22.099,0.989,44.584,1.527,66.085,6.097     c45.427,9.658,64.543,39.17,56.396,85.581c-9.233,52.626-19.925,104.995-29.987,157.475c-1.772,9.24-3.235,18.562-5.572,27.659     c-0.618,2.407-3.939,5.848-6.063,5.879c-26.183,0.404-52.373,0.265-79.682,0.265c4.906-25.491,9.612-49.828,14.271-74.171     c6.758-35.32,13.94-70.565,20.062-105.992c4.479-25.91-5.535-38.755-31.935-39.911c-26.852-1.174-53.795-0.259-82.187-0.259     c-14.196,72.85-28.438,145.925-42.806,219.656c-27.511,0-54.925,0-83.431,0C375.325,524.417,400.186,396.54,425.175,268z" fill-rule="evenodd"/></g></g></svg>