<svg xmlns="http://www.w3.org/2000/svg" viewBox="0 11.300000190734863 160.75 35.5" data-asc="0.926"><g fill="#ffffff"><g fill="#ffffff" transform="translate(0, 0)"><path d="M29 11.30L35 33.80L40.25 11.30L50 11.30L40.50 46.30L31 46.30L25 24.55L19 46.30L9.50 46.30L0 11.30L9.75 11.30L15 33.80L21 11.30L29 11.30ZM80.25 46.30L52.50 46.30L52.50 11.30L80.25 11.30L80.25 18.30L61.50 18.30L61.50 25.05L76.25 25.05L76.25 32.05L61.50 32.05L61.50 39.30L80.25 39.30L80.25 46.30ZM84.25 11.30L104.25 11.30Q109.15 11.30 111.45 13.53Q113.75 15.75 113.75 20.30Q113.75 23.30 112.45 25.18Q111.15 27.05 109.25 27.80Q113.30 28.90 114.75 33.20Q115.25 34.75 115.25 36.80Q115.25 41.70 112.95 44.00Q110.65 46.30 105.75 46.30L84.25 46.30L84.25 11.30M106.25 35.30Q106.25 32.30 103.25 32.30L93.25 32.30L93.25 39.30L103.25 39.30Q106.25 39.30 106.25 36.30L106.25 35.30M104.75 21.30Q104.75 18.30 101.75 18.30L93.25 18.30L93.25 25.30L101.75 25.30Q104.75 25.30 104.75 22.30L104.75 21.30ZM151.25 46.80Q142.90 46.80 132.75 45.80L132.75 39.05Q143.80 39.80 149.25 39.80Q150.40 39.80 151.07 39.13Q151.75 38.45 151.75 37.30L151.75 35.30Q151.75 32.30 148.75 32.30L138.25 32.30L138.25 25.30L147.75 25.30Q150.75 25.30 150.75 22.30L150.75 21.30Q150.75 18.30 147.75 18.30L133.25 18.30L133.25 11.30L150.25 11.30Q155.15 11.30 157.45 13.53Q159.75 15.75 159.75 20.30Q159.75 23.30 158.38 25.18Q157 27.05 154.75 27.80Q158.80 28.90 160.25 33.20Q160.75 34.75 160.75 36.80L160.75 37.30Q160.75 42.20 158.45 44.50Q156.15 46.80 151.25 46.80Z"/></g></g></svg>