<svg id="svg" version="1.1" xmlns="http://www.w3.org/2000/svg" xmlns:xlink="http://www.w3.org/1999/xlink" width="400" height="400" viewBox="0, 0, 400,400"><g id="svgg"><path id="path3" d="M162.233 114.177 C 160.711 116.585,159.386 118.589,159.288 118.630 C 159.191 118.670,159.111 118.795,159.111 118.906 C 159.111 119.188,156.439 123.388,156.059 123.702 C 155.888 123.844,155.756 124.044,155.765 124.146 C 155.774 124.249,155.631 124.509,155.446 124.725 C 155.262 124.940,155.111 125.184,155.111 125.267 C 155.111 125.483,152.811 128.985,152.611 129.074 C 152.519 129.115,152.444 129.237,152.444 129.344 C 152.444 129.637,150.204 133.111,150.015 133.111 C 149.925 133.111,149.851 133.236,149.850 133.389 C 149.849 133.542,149.169 134.717,148.340 136.000 C 147.510 137.283,146.508 138.833,146.113 139.444 C 145.718 140.056,143.916 142.906,142.109 145.778 C 140.302 148.650,138.682 151.116,138.508 151.258 C 138.335 151.399,138.209 151.580,138.228 151.660 C 138.272 151.837,129.593 165.487,129.164 165.915 C 128.995 166.084,128.909 166.222,128.972 166.222 C 129.107 166.222,122.545 176.591,122.046 177.167 C 121.370 177.947,120.960 177.627,119.011 174.799 C 117.966 173.284,117.111 171.970,117.111 171.880 C 117.111 171.789,116.976 171.605,116.811 171.469 C 116.339 171.082,107.882 158.631,107.944 158.415 C 107.975 158.309,107.907 158.222,107.794 158.222 C 107.568 158.222,104.222 153.446,104.222 153.124 C 104.222 153.015,104.139 152.893,104.037 152.852 C 103.693 152.714,96.444 142.042,96.444 141.673 C 96.444 141.472,96.364 141.357,96.266 141.417 C 96.114 141.511,93.172 137.445,92.911 136.782 C 92.862 136.657,92.755 136.506,92.673 136.444 C 92.375 136.222,88.000 129.775,88.000 129.557 C 88.000 129.434,87.925 129.333,87.833 129.333 C 87.742 129.333,87.371 128.858,87.010 128.277 C 86.648 127.697,86.293 127.172,86.221 127.111 C 85.973 126.903,81.222 119.915,81.319 119.902 C 81.372 119.895,81.149 119.601,80.823 119.250 C 80.497 118.898,80.285 118.523,80.351 118.416 C 80.417 118.310,80.377 118.222,80.263 118.222 C 80.020 118.222,75.333 111.475,75.333 111.126 C 75.333 110.556,74.852 110.976,74.333 112.000 C 74.024 112.611,73.689 113.111,73.589 113.111 C 73.489 113.111,73.407 113.241,73.407 113.399 C 73.407 113.558,72.455 115.433,71.290 117.566 C 70.125 119.699,68.984 121.794,68.753 122.222 C 68.522 122.650,68.281 123.050,68.216 123.111 C 68.152 123.172,67.911 123.647,67.682 124.167 C 67.453 124.686,67.181 125.111,67.077 125.111 C 66.974 125.111,66.914 125.187,66.944 125.279 C 67.014 125.488,60.675 137.171,60.391 137.358 C 60.277 137.433,60.187 137.583,60.191 137.692 C 60.198 137.909,57.786 142.489,57.570 142.667 C 57.496 142.728,57.314 143.054,57.166 143.391 C 57.018 143.728,56.085 145.478,55.093 147.279 C 54.101 149.081,52.941 151.205,52.515 151.999 C 52.088 152.792,51.673 153.492,51.592 153.554 C 51.511 153.616,51.421 153.787,51.392 153.934 C 51.328 154.263,43.565 168.512,43.365 168.667 C 43.287 168.728,43.202 168.887,43.178 169.021 C 43.123 169.328,35.600 183.117,35.266 183.522 C 35.131 183.688,34.999 183.938,34.975 184.078 C 34.924 184.368,28.441 196.274,28.241 196.444 C 28.170 196.506,28.093 196.656,28.071 196.778 C 28.037 196.968,24.650 203.248,22.662 206.809 L 22.024 207.951 24.234 209.698 C 25.450 210.658,26.444 211.519,26.444 211.611 C 26.444 211.703,26.561 211.778,26.704 211.778 C 26.846 211.778,27.121 211.931,27.315 212.118 C 27.508 212.305,30.667 214.809,34.333 217.683 C 38.000 220.556,41.153 223.078,41.341 223.287 C 41.956 223.972,42.164 223.793,43.801 221.160 C 44.692 219.728,45.501 218.522,45.599 218.481 C 45.697 218.441,45.778 218.316,45.778 218.204 C 45.778 217.922,58.909 197.018,59.144 196.926 C 59.248 196.885,59.333 196.749,59.333 196.624 C 59.333 196.375,62.367 191.445,62.774 191.032 C 62.912 190.892,63.090 190.606,63.169 190.397 C 63.248 190.188,63.751 189.338,64.287 188.508 C 64.822 187.679,66.691 184.700,68.441 181.889 C 70.191 179.078,71.755 176.668,71.919 176.534 C 72.082 176.399,72.164 176.239,72.102 176.176 C 72.040 176.114,72.142 175.937,72.328 175.782 C 72.514 175.628,72.667 175.420,72.667 175.321 C 72.667 174.627,77.196 168.000,77.670 168.000 C 78.200 168.000,79.234 169.136,78.956 169.414 C 78.879 169.492,78.917 169.556,79.041 169.556 C 79.271 169.556,80.667 171.651,80.667 171.996 C 80.667 172.100,80.754 172.219,80.860 172.259 C 81.117 172.357,84.036 176.889,83.843 176.889 C 83.760 176.889,83.852 177.014,84.047 177.167 C 84.447 177.481,87.778 182.581,87.778 182.880 C 87.778 182.987,87.863 183.107,87.967 183.148 C 88.191 183.236,90.654 187.027,90.728 187.397 C 90.755 187.537,90.942 187.805,91.143 187.992 C 91.437 188.267,100.206 201.675,114.839 224.222 C 117.548 228.397,118.072 229.129,118.226 228.949 C 118.393 228.754,121.389 224.544,127.441 216.000 C 129.735 212.761,131.700 210.078,131.806 210.037 C 131.913 209.996,132.000 209.867,132.000 209.750 C 132.000 209.479,139.098 199.470,139.361 199.370 C 139.468 199.330,139.556 199.206,139.556 199.095 C 139.556 198.821,142.291 194.949,143.167 193.984 C 143.381 193.748,143.531 193.527,143.500 193.493 C 143.389 193.366,147.588 187.556,147.791 187.556 C 147.906 187.556,147.975 187.478,147.944 187.382 C 147.870 187.150,150.028 184.000,150.261 184.000 C 150.362 184.000,150.444 183.895,150.444 183.767 C 150.444 183.451,152.264 180.889,152.488 180.889 C 152.586 180.889,152.667 180.781,152.667 180.650 C 152.667 180.325,154.924 177.111,155.152 177.111 C 155.252 177.111,155.333 177.006,155.333 176.878 C 155.333 176.187,160.703 169.111,161.227 169.111 C 161.726 169.111,167.545 177.238,167.466 177.824 C 167.454 177.910,167.606 178.110,167.804 178.268 C 168.002 178.426,171.142 183.006,174.781 188.444 C 178.421 193.883,181.534 198.491,181.700 198.685 C 181.865 198.878,181.934 199.103,181.852 199.185 C 181.771 199.266,181.807 199.333,181.934 199.333 C 182.146 199.333,184.136 202.252,185.344 204.333 C 185.628 204.822,186.377 206.022,187.010 207.000 C 187.643 207.978,188.410 209.228,188.714 209.778 C 189.018 210.328,189.477 211.121,189.733 211.540 C 189.990 211.959,190.148 212.384,190.086 212.484 C 190.024 212.585,190.077 212.667,190.203 212.667 C 190.330 212.667,190.588 212.967,190.778 213.333 C 190.967 213.700,191.051 214.000,190.963 214.000 C 190.876 214.000,190.958 214.125,191.147 214.278 C 191.569 214.620,196.963 223.992,196.963 224.384 C 196.963 224.540,197.039 224.667,197.133 224.667 C 197.319 224.667,199.083 227.769,199.077 228.086 C 199.075 228.195,199.174 228.346,199.298 228.423 C 199.601 228.610,205.347 238.666,205.153 238.670 C 205.069 238.672,205.117 238.748,205.260 238.839 C 205.513 239.000,210.558 247.665,210.832 248.408 C 210.906 248.612,211.034 248.828,211.116 248.889 C 211.198 248.950,213.234 252.450,215.641 256.667 C 218.048 260.883,220.107 264.483,220.217 264.667 C 222.099 267.824,225.979 274.679,226.096 275.056 C 226.182 275.331,226.339 275.556,226.444 275.556 C 226.644 275.556,227.010 276.430,226.933 276.722 C 226.909 276.814,226.980 276.889,227.092 276.889 C 227.300 276.889,228.848 279.508,228.850 279.864 C 228.850 279.973,228.945 280.123,229.061 280.197 C 229.176 280.272,230.442 282.383,231.873 284.889 C 233.305 287.394,234.545 289.515,234.629 289.602 C 234.713 289.688,236.423 287.163,238.429 283.991 C 240.435 280.818,242.160 278.222,242.261 278.222 C 242.362 278.222,242.422 278.147,242.395 278.056 C 242.320 277.803,243.569 275.778,243.799 275.778 C 243.910 275.778,243.975 275.697,243.944 275.598 C 243.878 275.382,247.321 269.921,247.591 269.815 C 247.694 269.774,247.778 269.644,247.778 269.525 C 247.778 269.232,252.872 261.264,253.190 261.059 C 253.330 260.969,253.374 260.894,253.288 260.892 C 253.071 260.888,267.708 237.949,268.131 237.631 C 268.320 237.490,268.453 237.307,268.428 237.225 C 268.352 236.979,269.346 235.333,269.570 235.333 C 269.684 235.333,269.753 235.253,269.722 235.154 C 269.548 234.589,277.907 221.992,278.418 222.051 C 278.960 222.113,292.788 241.805,292.495 242.097 C 292.427 242.166,292.467 242.222,292.585 242.222 C 292.847 242.222,298.800 250.875,298.722 251.142 C 298.692 251.247,298.763 251.333,298.881 251.333 C 299.146 251.333,300.963 253.980,300.963 254.366 C 300.963 254.521,301.086 254.695,301.236 254.752 C 301.537 254.868,306.831 262.528,306.661 262.602 C 306.603 262.627,306.717 262.777,306.915 262.935 C 307.373 263.301,311.778 269.700,311.778 269.998 C 311.778 270.121,311.861 270.222,311.962 270.222 C 312.064 270.222,312.289 270.497,312.462 270.833 C 312.635 271.169,312.841 271.494,312.918 271.556 C 313.212 271.787,320.638 282.667,320.502 282.667 C 320.424 282.667,320.514 282.792,320.702 282.944 C 320.891 283.097,321.826 284.372,322.779 285.778 C 323.733 287.183,324.586 288.416,324.674 288.517 C 324.763 288.619,326.185 286.219,327.835 283.184 C 331.712 276.055,331.807 275.881,334.171 271.556 C 335.273 269.539,336.473 267.339,336.839 266.667 C 337.204 265.994,338.981 262.744,340.787 259.444 C 342.593 256.144,344.258 253.069,344.485 252.611 C 344.713 252.153,345.014 251.778,345.153 251.778 C 345.293 251.778,345.345 251.715,345.269 251.639 C 345.193 251.563,345.486 250.838,345.921 250.028 C 350.825 240.895,358.338 227.174,358.531 226.999 C 358.667 226.877,358.808 226.635,358.846 226.461 C 358.936 226.044,361.087 222.062,361.412 221.710 C 361.552 221.558,361.691 221.313,361.721 221.166 C 361.763 220.954,366.907 211.446,374.434 197.667 C 374.768 197.056,375.471 195.756,375.996 194.778 C 376.522 193.800,377.136 192.692,377.360 192.315 L 377.768 191.630 375.717 189.991 C 374.589 189.089,373.567 188.270,373.444 188.170 C 373.322 188.071,371.872 186.936,370.222 185.648 C 368.572 184.360,367.111 183.163,366.976 182.987 C 366.840 182.811,366.663 182.667,366.582 182.667 C 366.255 182.667,361.778 178.979,361.778 178.709 C 361.778 178.549,361.687 178.474,361.576 178.543 C 361.465 178.612,360.546 178.016,359.535 177.219 C 358.524 176.422,357.627 175.847,357.543 175.941 C 357.459 176.034,355.363 179.361,352.884 183.333 C 350.406 187.306,348.259 190.656,348.112 190.778 C 347.965 190.900,347.843 191.083,347.840 191.185 C 347.837 191.286,345.501 195.086,342.649 199.629 C 339.797 204.172,335.937 210.332,334.070 213.317 C 332.204 216.303,330.566 218.814,330.431 218.897 C 330.295 218.981,330.218 219.096,330.259 219.153 C 330.300 219.211,329.923 219.899,329.422 220.684 C 328.921 221.469,327.189 224.236,325.573 226.833 C 322.076 232.455,322.113 232.431,320.551 230.017 C 320.004 229.170,319.556 228.379,319.556 228.257 C 319.556 228.136,319.468 228.004,319.361 227.963 C 319.122 227.872,311.793 216.631,311.801 216.369 C 311.805 216.266,311.669 216.066,311.500 215.924 C 311.331 215.783,310.159 214.067,308.895 212.111 C 307.630 210.156,306.012 207.689,305.298 206.629 C 304.584 205.569,304.000 204.657,304.000 204.601 C 304.000 204.545,303.303 203.472,302.452 202.217 C 301.600 200.962,300.956 199.849,301.020 199.745 C 301.085 199.641,301.042 199.556,300.925 199.556 C 300.809 199.556,299.818 198.181,298.723 196.500 C 295.731 191.905,295.456 191.459,295.508 191.278 C 295.534 191.186,295.469 191.111,295.362 191.111 C 295.145 191.111,292.683 187.311,292.741 187.065 C 292.761 186.979,292.615 186.779,292.416 186.621 C 292.009 186.297,288.667 181.194,288.667 180.896 C 288.667 180.790,288.586 180.670,288.487 180.630 C 288.389 180.589,286.789 178.216,284.932 175.357 C 283.075 172.498,281.556 170.278,281.556 170.423 C 281.556 170.568,281.285 170.957,280.955 171.288 C 280.624 171.618,280.399 171.904,280.455 171.923 C 280.510 171.942,280.006 172.732,279.333 173.678 C 278.661 174.624,277.823 175.808,277.472 176.310 C 272.777 183.010,269.480 187.556,269.315 187.556 C 269.203 187.556,269.136 187.635,269.167 187.733 C 269.241 187.969,267.533 190.444,267.296 190.444 C 267.194 190.444,267.136 190.521,267.167 190.615 C 267.229 190.805,250.103 215.082,249.633 215.469 C 249.468 215.605,249.333 215.785,249.333 215.870 C 249.333 216.080,245.577 221.388,245.232 221.667 C 245.080 221.789,244.946 221.968,244.934 222.064 C 244.826 222.910,239.031 230.433,238.519 230.390 C 238.026 230.350,232.118 222.173,231.578 220.784 C 231.529 220.658,231.421 220.506,231.339 220.444 C 231.256 220.383,228.604 216.483,225.446 211.778 C 222.288 207.072,218.783 201.872,217.656 200.222 C 216.529 198.572,215.078 196.322,214.431 195.222 C 213.785 194.122,212.886 192.672,212.434 192.000 C 211.204 190.170,201.037 172.379,201.037 172.057 C 201.037 171.903,200.962 171.778,200.870 171.778 C 200.657 171.778,195.928 163.540,195.927 163.167 C 195.926 163.014,195.856 162.889,195.770 162.889 C 195.611 162.889,192.888 158.299,192.817 157.911 C 192.795 157.794,192.637 157.524,192.465 157.311 C 192.294 157.098,191.832 156.341,191.439 155.628 C 191.047 154.916,188.861 151.103,186.581 147.155 C 184.301 143.206,182.413 139.857,182.385 139.711 C 182.357 139.565,182.224 139.346,182.091 139.223 C 181.958 139.100,180.230 136.150,178.250 132.667 C 176.270 129.183,174.560 126.183,174.450 126.000 C 174.339 125.817,172.275 122.236,169.861 118.042 C 167.448 113.848,165.367 110.278,165.237 110.108 C 165.052 109.866,164.392 110.760,162.233 114.177 " stroke="none" fill="#ffffff" fill-rule="evenodd"></path><path id="path4" d="M162.233 114.177 C 160.711 116.585,159.386 118.589,159.288 118.630 C 159.191 118.670,159.111 118.795,159.111 118.906 C 159.111 119.188,156.439 123.388,156.059 123.702 C 155.888 123.844,155.756 124.044,155.765 124.146 C 155.774 124.249,155.631 124.509,155.446 124.725 C 155.262 124.940,155.111 125.184,155.111 125.267 C 155.111 125.483,152.811 128.985,152.611 129.074 C 152.519 129.115,152.444 129.237,152.444 129.344 C 152.444 129.637,150.204 133.111,150.015 133.111 C 149.925 133.111,149.851 133.236,149.850 133.389 C 149.849 133.542,149.169 134.717,148.340 136.000 C 147.510 137.283,146.508 138.833,146.113 139.444 C 145.718 140.056,143.916 142.906,142.109 145.778 C 140.302 148.650,138.682 151.116,138.508 151.258 C 138.335 151.399,138.209 151.580,138.228 151.660 C 138.272 151.837,129.593 165.487,129.164 165.915 C 128.995 166.084,128.909 166.222,128.972 166.222 C 129.107 166.222,122.545 176.591,122.046 177.167 C 121.370 177.947,120.960 177.627,119.011 174.799 C 117.966 173.284,117.111 171.970,117.111 171.880 C 117.111 171.789,116.976 171.605,116.811 171.469 C 116.339 171.082,107.882 158.631,107.944 158.415 C 107.975 158.309,107.907 158.222,107.794 158.222 C 107.568 158.222,104.222 153.446,104.222 153.124 C 104.222 153.015,104.139 152.893,104.037 152.852 C 103.693 152.714,96.444 142.042,96.444 141.673 C 96.444 141.472,96.364 141.357,96.266 141.417 C 96.114 141.511,93.172 137.445,92.911 136.782 C 92.862 136.657,92.755 136.506,92.673 136.444 C 92.375 136.222,88.000 129.775,88.000 129.557 C 88.000 129.434,87.925 129.333,87.833 129.333 C 87.742 129.333,87.371 128.858,87.010 128.277 C 86.648 127.697,86.293 127.172,86.221 127.111 C 85.973 126.903,81.222 119.915,81.319 119.902 C 81.372 119.895,81.149 119.601,80.823 119.250 C 80.497 118.898,80.285 118.523,80.351 118.416 C 80.417 118.310,80.377 118.222,80.263 118.222 C 80.020 118.222,75.333 111.475,75.333 111.126 C 75.333 110.556,74.852 110.976,74.333 112.000 C 74.024 112.611,73.689 113.111,73.589 113.111 C 73.489 113.111,73.407 113.241,73.407 113.399 C 73.407 113.558,72.455 115.433,71.290 117.566 C 70.125 119.699,68.984 121.794,68.753 122.222 C 68.522 122.650,68.281 123.050,68.216 123.111 C 68.152 123.172,67.911 123.647,67.682 124.167 C 67.453 124.686,67.181 125.111,67.077 125.111 C 66.974 125.111,66.914 125.187,66.944 125.279 C 67.014 125.488,60.675 137.171,60.391 137.358 C 60.277 137.433,60.187 137.583,60.191 137.692 C 60.198 137.909,57.786 142.489,57.570 142.667 C 57.496 142.728,57.314 143.054,57.166 143.391 C 57.018 143.728,56.085 145.478,55.093 147.279 C 54.101 149.081,52.941 151.205,52.515 151.999 C 52.088 152.792,51.673 153.492,51.592 153.554 C 51.511 153.616,51.421 153.787,51.392 153.934 C 51.328 154.263,43.565 168.512,43.365 168.667 C 43.287 168.728,43.202 168.887,43.178 169.021 C 43.123 169.328,35.600 183.117,35.266 183.522 C 35.131 183.688,34.999 183.938,34.975 184.078 C 34.924 184.368,28.441 196.274,28.241 196.444 C 28.170 196.506,28.093 196.656,28.071 196.778 C 28.037 196.968,24.650 203.248,22.662 206.809 L 22.024 207.951 24.234 209.698 C 25.450 210.658,26.444 211.519,26.444 211.611 C 26.444 211.703,26.561 211.778,26.704 211.778 C 26.846 211.778,27.121 211.931,27.315 212.118 C 27.508 212.305,30.667 214.809,34.333 217.683 C 38.000 220.556,41.153 223.078,41.341 223.287 C 41.956 223.972,42.164 223.793,43.801 221.160 C 44.692 219.728,45.501 218.522,45.599 218.481 C 45.697 218.441,45.778 218.316,45.778 218.204 C 45.778 217.922,58.909 197.018,59.144 196.926 C 59.248 196.885,59.333 196.749,59.333 196.624 C 59.333 196.375,62.367 191.445,62.774 191.032 C 62.912 190.892,63.090 190.606,63.169 190.397 C 63.248 190.188,63.751 189.338,64.287 188.508 C 64.822 187.679,66.691 184.700,68.441 181.889 C 70.191 179.078,71.755 176.668,71.919 176.534 C 72.082 176.399,72.164 176.239,72.102 176.176 C 72.040 176.114,72.142 175.937,72.328 175.782 C 72.514 175.628,72.667 175.420,72.667 175.321 C 72.667 174.627,77.196 168.000,77.670 168.000 C 78.200 168.000,79.234 169.136,78.956 169.414 C 78.879 169.492,78.917 169.556,79.041 169.556 C 79.271 169.556,80.667 171.651,80.667 171.996 C 80.667 172.100,80.754 172.219,80.860 172.259 C 81.117 172.357,84.036 176.889,83.843 176.889 C 83.760 176.889,83.852 177.014,84.047 177.167 C 84.447 177.481,87.778 182.581,87.778 182.880 C 87.778 182.987,87.863 183.107,87.967 183.148 C 88.191 183.236,90.654 187.027,90.728 187.397 C 90.755 187.537,90.942 187.805,91.143 187.992 C 91.437 188.267,100.206 201.675,114.839 224.222 C 117.548 228.397,118.072 229.129,118.226 228.949 C 118.393 228.754,121.389 224.544,127.441 216.000 C 129.735 212.761,131.700 210.078,131.806 210.037 C 131.913 209.996,132.000 209.867,132.000 209.750 C 132.000 209.479,139.098 199.470,139.361 199.370 C 139.468 199.330,139.556 199.206,139.556 199.095 C 139.556 198.821,142.291 194.949,143.167 193.984 C 143.381 193.748,143.531 193.527,143.500 193.493 C 143.389 193.366,147.588 187.556,147.791 187.556 C 147.906 187.556,147.975 187.478,147.944 187.382 C 147.870 187.150,150.028 184.000,150.261 184.000 C 150.362 184.000,150.444 183.895,150.444 183.767 C 150.444 183.451,152.264 180.889,152.488 180.889 C 152.586 180.889,152.667 180.781,152.667 180.650 C 152.667 180.325,154.924 177.111,155.152 177.111 C 155.252 177.111,155.333 177.006,155.333 176.878 C 155.333 176.187,160.703 169.111,161.227 169.111 C 161.726 169.111,167.545 177.238,167.466 177.824 C 167.454 177.910,167.606 178.110,167.804 178.268 C 168.002 178.426,171.142 183.006,174.781 188.444 C 178.421 193.883,181.534 198.491,181.700 198.685 C 181.865 198.878,181.934 199.103,181.852 199.185 C 181.771 199.266,181.807 199.333,181.934 199.333 C 182.146 199.333,184.136 202.252,185.344 204.333 C 185.628 204.822,186.377 206.022,187.010 207.000 C 187.643 207.978,188.410 209.228,188.714 209.778 C 189.018 210.328,189.477 211.121,189.733 211.540 C 189.990 211.959,190.148 212.384,190.086 212.484 C 190.024 212.585,190.077 212.667,190.203 212.667 C 190.330 212.667,190.588 212.967,190.778 213.333 C 190.967 213.700,191.051 214.000,190.963 214.000 C 190.876 214.000,190.958 214.125,191.147 214.278 C 191.569 214.620,196.963 223.992,196.963 224.384 C 196.963 224.540,197.039 224.667,197.133 224.667 C 197.319 224.667,199.083 227.769,199.077 228.086 C 199.075 228.195,199.174 228.346,199.298 228.423 C 199.601 228.610,205.347 238.666,205.153 238.670 C 205.069 238.672,205.117 238.748,205.260 238.839 C 205.513 239.000,210.558 247.665,210.832 248.408 C 210.906 248.612,211.034 248.828,211.116 248.889 C 211.198 248.950,213.234 252.450,215.641 256.667 C 218.048 260.883,220.107 264.483,220.217 264.667 C 222.099 267.824,225.979 274.679,226.096 275.056 C 226.182 275.331,226.339 275.556,226.444 275.556 C 226.644 275.556,227.010 276.430,226.933 276.722 C 226.909 276.814,226.980 276.889,227.092 276.889 C 227.300 276.889,228.848 279.508,228.850 279.864 C 228.850 279.973,228.945 280.123,229.061 280.197 C 229.176 280.272,230.442 282.383,231.873 284.889 C 233.305 287.394,234.545 289.515,234.629 289.602 C 234.713 289.688,236.423 287.163,238.429 283.991 C 240.435 280.818,242.160 278.222,242.261 278.222 C 242.362 278.222,242.422 278.147,242.395 278.056 C 242.320 277.803,243.569 275.778,243.799 275.778 C 243.910 275.778,243.975 275.697,243.944 275.598 C 243.878 275.382,247.321 269.921,247.591 269.815 C 247.694 269.774,247.778 269.644,247.778 269.525 C 247.778 269.232,252.872 261.264,253.190 261.059 C 253.330 260.969,253.374 260.894,253.288 260.892 C 253.071 260.888,267.708 237.949,268.131 237.631 C 268.320 237.490,268.453 237.307,268.428 237.225 C 268.352 236.979,269.346 235.333,269.570 235.333 C 269.684 235.333,269.753 235.253,269.722 235.154 C 269.548 234.589,277.907 221.992,278.418 222.051 C 278.960 222.113,292.788 241.805,292.495 242.097 C 292.427 242.166,292.467 242.222,292.585 242.222 C 292.847 242.222,298.800 250.875,298.722 251.142 C 298.692 251.247,298.763 251.333,298.881 251.333 C 299.146 251.333,300.963 253.980,300.963 254.366 C 300.963 254.521,301.086 254.695,301.236 254.752 C 301.537 254.868,306.831 262.528,306.661 262.602 C 306.603 262.627,306.717 262.777,306.915 262.935 C 307.373 263.301,311.778 269.700,311.778 269.998 C 311.778 270.121,311.861 270.222,311.962 270.222 C 312.064 270.222,312.289 270.497,312.462 270.833 C 312.635 271.169,312.841 271.494,312.918 271.556 C 313.212 271.787,320.638 282.667,320.502 282.667 C 320.424 282.667,320.514 282.792,320.702 282.944 C 320.891 283.097,321.826 284.372,322.779 285.778 C 323.733 287.183,324.586 288.416,324.674 288.517 C 324.763 288.619,326.185 286.219,327.835 283.184 C 331.712 276.055,331.807 275.881,334.171 271.556 C 335.273 269.539,336.473 267.339,336.839 266.667 C 337.204 265.994,338.981 262.744,340.787 259.444 C 342.593 256.144,344.258 253.069,344.485 252.611 C 344.713 252.153,345.014 251.778,345.153 251.778 C 345.293 251.778,345.345 251.715,345.269 251.639 C 345.193 251.563,345.486 250.838,345.921 250.028 C 350.825 240.895,358.338 227.174,358.531 226.999 C 358.667 226.877,358.808 226.635,358.846 226.461 C 358.936 226.044,361.087 222.062,361.412 221.710 C 361.552 221.558,361.691 221.313,361.721 221.166 C 361.763 220.954,366.907 211.446,374.434 197.667 C 374.768 197.056,375.471 195.756,375.996 194.778 C 376.522 193.800,377.136 192.692,377.360 192.315 L 377.768 191.630 375.717 189.991 C 374.589 189.089,373.567 188.270,373.444 188.170 C 373.322 188.071,371.872 186.936,370.222 185.648 C 368.572 184.360,367.111 183.163,366.976 182.987 C 366.840 182.811,366.663 182.667,366.582 182.667 C 366.255 182.667,361.778 178.979,361.778 178.709 C 361.778 178.549,361.687 178.474,361.576 178.543 C 361.465 178.612,360.546 178.016,359.535 177.219 C 358.524 176.422,357.627 175.847,357.543 175.941 C 357.459 176.034,355.363 179.361,352.884 183.333 C 350.406 187.306,348.259 190.656,348.112 190.778 C 347.965 190.900,347.843 191.083,347.840 191.185 C 347.837 191.286,345.501 195.086,342.649 199.629 C 339.797 204.172,335.937 210.332,334.070 213.317 C 332.204 216.303,330.566 218.814,330.431 218.897 C 330.295 218.981,330.218 219.096,330.259 219.153 C 330.300 219.211,329.923 219.899,329.422 220.684 C 328.921 221.469,327.189 224.236,325.573 226.833 C 322.076 232.455,322.113 232.431,320.551 230.017 C 320.004 229.170,319.556 228.379,319.556 228.257 C 319.556 228.136,319.468 228.004,319.361 227.963 C 319.122 227.872,311.793 216.631,311.801 216.369 C 311.805 216.266,311.669 216.066,311.500 215.924 C 311.331 215.783,310.159 214.067,308.895 212.111 C 307.630 210.156,306.012 207.689,305.298 206.629 C 304.584 205.569,304.000 204.657,304.000 204.601 C 304.000 204.545,303.303 203.472,302.452 202.217 C 301.600 200.962,300.956 199.849,301.020 199.745 C 301.085 199.641,301.042 199.556,300.925 199.556 C 300.809 199.556,299.818 198.181,298.723 196.500 C 295.731 191.905,295.456 191.459,295.508 191.278 C 295.534 191.186,295.469 191.111,295.362 191.111 C 295.145 191.111,292.683 187.311,292.741 187.065 C 292.761 186.979,292.615 186.779,292.416 186.621 C 292.009 186.297,288.667 181.194,288.667 180.896 C 288.667 180.790,288.586 180.670,288.487 180.630 C 288.389 180.589,286.789 178.216,284.932 175.357 C 283.075 172.498,281.556 170.278,281.556 170.423 C 281.556 170.568,281.285 170.957,280.955 171.288 C 280.624 171.618,280.399 171.904,280.455 171.923 C 280.510 171.942,280.006 172.732,279.333 173.678 C 278.661 174.624,277.823 175.808,277.472 176.310 C 272.777 183.010,269.480 187.556,269.315 187.556 C 269.203 187.556,269.136 187.635,269.167 187.733 C 269.241 187.969,267.533 190.444,267.296 190.444 C 267.194 190.444,267.136 190.521,267.167 190.615 C 267.229 190.805,250.103 215.082,249.633 215.469 C 249.468 215.605,249.333 215.785,249.333 215.870 C 249.333 216.080,245.577 221.388,245.232 221.667 C 245.080 221.789,244.946 221.968,244.934 222.064 C 244.826 222.910,239.031 230.433,238.519 230.390 C 238.026 230.350,232.118 222.173,231.578 220.784 C 231.529 220.658,231.421 220.506,231.339 220.444 C 231.256 220.383,228.604 216.483,225.446 211.778 C 222.288 207.072,218.783 201.872,217.656 200.222 C 216.529 198.572,215.078 196.322,214.431 195.222 C 213.785 194.122,212.886 192.672,212.434 192.000 C 211.204 190.170,201.037 172.379,201.037 172.057 C 201.037 171.903,200.962 171.778,200.870 171.778 C 200.657 171.778,195.928 163.540,195.927 163.167 C 195.926 163.014,195.856 162.889,195.770 162.889 C 195.611 162.889,192.888 158.299,192.817 157.911 C 192.795 157.794,192.637 157.524,192.465 157.311 C 192.294 157.098,191.832 156.341,191.439 155.628 C 191.047 154.916,188.861 151.103,186.581 147.155 C 184.301 143.206,182.413 139.857,182.385 139.711 C 182.357 139.565,182.224 139.346,182.091 139.223 C 181.958 139.100,180.230 136.150,178.250 132.667 C 176.270 129.183,174.560 126.183,174.450 126.000 C 174.339 125.817,172.275 122.236,169.861 118.042 C 167.448 113.848,165.367 110.278,165.237 110.108 C 165.052 109.866,164.392 110.760,162.233 114.177 " stroke="none" fill="#ffffff" fill-rule="evenodd"></path><path id="path0" d="" stroke="none" fill="#e44c84" fill-rule="evenodd"></path><path id="path1" d="M162.233 114.177 C 160.711 116.585,159.386 118.589,159.288 118.630 C 159.191 118.670,159.111 118.795,159.111 118.906 C 159.111 119.188,156.439 123.388,156.059 123.702 C 155.888 123.844,155.756 124.044,155.765 124.146 C 155.774 124.249,155.631 124.509,155.446 124.725 C 155.262 124.940,155.111 125.184,155.111 125.267 C 155.111 125.483,152.811 128.985,152.611 129.074 C 152.519 129.115,152.444 129.237,152.444 129.344 C 152.444 129.637,150.204 133.111,150.015 133.111 C 149.925 133.111,149.851 133.236,149.850 133.389 C 149.849 133.542,149.169 134.717,148.340 136.000 C 147.510 137.283,146.508 138.833,146.113 139.444 C 145.718 140.056,143.916 142.906,142.109 145.778 C 140.302 148.650,138.682 151.116,138.508 151.258 C 138.335 151.399,138.209 151.580,138.228 151.660 C 138.272 151.837,129.593 165.487,129.164 165.915 C 128.995 166.084,128.909 166.222,128.972 166.222 C 129.107 166.222,122.545 176.591,122.046 177.167 C 121.370 177.947,120.960 177.627,119.011 174.799 C 117.966 173.284,117.111 171.970,117.111 171.880 C 117.111 171.789,116.976 171.605,116.811 171.469 C 116.339 171.082,107.882 158.631,107.944 158.415 C 107.975 158.309,107.907 158.222,107.794 158.222 C 107.568 158.222,104.222 153.446,104.222 153.124 C 104.222 153.015,104.139 152.893,104.037 152.852 C 103.693 152.714,96.444 142.042,96.444 141.673 C 96.444 141.472,96.364 141.357,96.266 141.417 C 96.114 141.511,93.172 137.445,92.911 136.782 C 92.862 136.657,92.755 136.506,92.673 136.444 C 92.375 136.222,88.000 129.775,88.000 129.557 C 88.000 129.434,87.925 129.333,87.833 129.333 C 87.742 129.333,87.371 128.858,87.010 128.277 C 86.648 127.697,86.293 127.172,86.221 127.111 C 85.973 126.903,81.222 119.915,81.319 119.902 C 81.372 119.895,81.149 119.601,80.823 119.250 C 80.497 118.898,80.285 118.523,80.351 118.416 C 80.417 118.310,80.377 118.222,80.263 118.222 C 80.020 118.222,75.333 111.475,75.333 111.126 C 75.333 110.556,74.852 110.976,74.333 112.000 C 74.024 112.611,73.689 113.111,73.589 113.111 C 73.489 113.111,73.407 113.241,73.407 113.399 C 73.407 113.558,72.455 115.433,71.290 117.566 C 70.125 119.699,68.984 121.794,68.753 122.222 C 68.522 122.650,68.281 123.050,68.216 123.111 C 68.152 123.172,67.911 123.647,67.682 124.167 C 67.453 124.686,67.181 125.111,67.077 125.111 C 66.974 125.111,66.914 125.187,66.944 125.279 C 67.014 125.488,60.675 137.171,60.391 137.358 C 60.277 137.433,60.187 137.583,60.191 137.692 C 60.198 137.909,57.786 142.489,57.570 142.667 C 57.496 142.728,57.314 143.054,57.166 143.391 C 57.018 143.728,56.085 145.478,55.093 147.279 C 54.101 149.081,52.941 151.205,52.515 151.999 C 52.088 152.792,51.673 153.492,51.592 153.554 C 51.511 153.616,51.421 153.787,51.392 153.934 C 51.328 154.263,43.565 168.512,43.365 168.667 C 43.287 168.728,43.202 168.887,43.178 169.021 C 43.123 169.328,35.600 183.117,35.266 183.522 C 35.131 183.688,34.999 183.938,34.975 184.078 C 34.924 184.368,28.441 196.274,28.241 196.444 C 28.170 196.506,28.093 196.656,28.071 196.778 C 28.037 196.968,24.650 203.248,22.662 206.809 L 22.024 207.951 24.234 209.698 C 25.450 210.658,26.444 211.519,26.444 211.611 C 26.444 211.703,26.561 211.778,26.704 211.778 C 26.846 211.778,27.121 211.931,27.315 212.118 C 27.508 212.305,30.667 214.809,34.333 217.683 C 38.000 220.556,41.153 223.078,41.341 223.287 C 41.956 223.972,42.164 223.793,43.801 221.160 C 44.692 219.728,45.501 218.522,45.599 218.481 C 45.697 218.441,45.778 218.316,45.778 218.204 C 45.778 217.922,58.909 197.018,59.144 196.926 C 59.248 196.885,59.333 196.749,59.333 196.624 C 59.333 196.375,62.367 191.445,62.774 191.032 C 62.912 190.892,63.090 190.606,63.169 190.397 C 63.248 190.188,63.751 189.338,64.287 188.508 C 64.822 187.679,66.691 184.700,68.441 181.889 C 70.191 179.078,71.755 176.668,71.919 176.534 C 72.082 176.399,72.164 176.239,72.102 176.176 C 72.040 176.114,72.142 175.937,72.328 175.782 C 72.514 175.628,72.667 175.420,72.667 175.321 C 72.667 174.627,77.196 168.000,77.670 168.000 C 78.200 168.000,79.234 169.136,78.956 169.414 C 78.879 169.492,78.917 169.556,79.041 169.556 C 79.271 169.556,80.667 171.651,80.667 171.996 C 80.667 172.100,80.754 172.219,80.860 172.259 C 81.117 172.357,84.036 176.889,83.843 176.889 C 83.760 176.889,83.852 177.014,84.047 177.167 C 84.447 177.481,87.778 182.581,87.778 182.880 C 87.778 182.987,87.863 183.107,87.967 183.148 C 88.191 183.236,90.654 187.027,90.728 187.397 C 90.755 187.537,90.942 187.805,91.143 187.992 C 91.437 188.267,100.206 201.675,114.839 224.222 C 117.548 228.397,118.072 229.129,118.226 228.949 C 118.393 228.754,121.389 224.544,127.441 216.000 C 129.735 212.761,131.700 210.078,131.806 210.037 C 131.913 209.996,132.000 209.867,132.000 209.750 C 132.000 209.479,139.098 199.470,139.361 199.370 C 139.468 199.330,139.556 199.206,139.556 199.095 C 139.556 198.821,142.291 194.949,143.167 193.984 C 143.381 193.748,143.531 193.527,143.500 193.493 C 143.389 193.366,147.588 187.556,147.791 187.556 C 147.906 187.556,147.975 187.478,147.944 187.382 C 147.870 187.150,150.028 184.000,150.261 184.000 C 150.362 184.000,150.444 183.895,150.444 183.767 C 150.444 183.451,152.264 180.889,152.488 180.889 C 152.586 180.889,152.667 180.781,152.667 180.650 C 152.667 180.325,154.924 177.111,155.152 177.111 C 155.252 177.111,155.333 177.006,155.333 176.878 C 155.333 176.187,160.703 169.111,161.227 169.111 C 161.726 169.111,167.545 177.238,167.466 177.824 C 167.454 177.910,167.606 178.110,167.804 178.268 C 168.002 178.426,171.142 183.006,174.781 188.444 C 178.421 193.883,181.534 198.491,181.700 198.685 C 181.865 198.878,181.934 199.103,181.852 199.185 C 181.771 199.266,181.807 199.333,181.934 199.333 C 182.146 199.333,184.136 202.252,185.344 204.333 C 185.628 204.822,186.377 206.022,187.010 207.000 C 187.643 207.978,188.410 209.228,188.714 209.778 C 189.018 210.328,189.477 211.121,189.733 211.540 C 189.990 211.959,190.148 212.384,190.086 212.484 C 190.024 212.585,190.077 212.667,190.203 212.667 C 190.330 212.667,190.588 212.967,190.778 213.333 C 190.967 213.700,191.051 214.000,190.963 214.000 C 190.876 214.000,190.958 214.125,191.147 214.278 C 191.569 214.620,196.963 223.992,196.963 224.384 C 196.963 224.540,197.039 224.667,197.133 224.667 C 197.319 224.667,199.083 227.769,199.077 228.086 C 199.075 228.195,199.174 228.346,199.298 228.423 C 199.601 228.610,205.347 238.666,205.153 238.670 C 205.069 238.672,205.117 238.748,205.260 238.839 C 205.513 239.000,210.558 247.665,210.832 248.408 C 210.906 248.612,211.034 248.828,211.116 248.889 C 211.198 248.950,213.234 252.450,215.641 256.667 C 218.048 260.883,220.107 264.483,220.217 264.667 C 222.099 267.824,225.979 274.679,226.096 275.056 C 226.182 275.331,226.339 275.556,226.444 275.556 C 226.644 275.556,227.010 276.430,226.933 276.722 C 226.909 276.814,226.980 276.889,227.092 276.889 C 227.300 276.889,228.848 279.508,228.850 279.864 C 228.850 279.973,228.945 280.123,229.061 280.197 C 229.176 280.272,230.442 282.383,231.873 284.889 C 233.305 287.394,234.545 289.515,234.629 289.602 C 234.713 289.688,236.423 287.163,238.429 283.991 C 240.435 280.818,242.160 278.222,242.261 278.222 C 242.362 278.222,242.422 278.147,242.395 278.056 C 242.320 277.803,243.569 275.778,243.799 275.778 C 243.910 275.778,243.975 275.697,243.944 275.598 C 243.878 275.382,247.321 269.921,247.591 269.815 C 247.694 269.774,247.778 269.644,247.778 269.525 C 247.778 269.232,252.872 261.264,253.190 261.059 C 253.330 260.969,253.374 260.894,253.288 260.892 C 253.071 260.888,267.708 237.949,268.131 237.631 C 268.320 237.490,268.453 237.307,268.428 237.225 C 268.352 236.979,269.346 235.333,269.570 235.333 C 269.684 235.333,269.753 235.253,269.722 235.154 C 269.548 234.589,277.907 221.992,278.418 222.051 C 278.960 222.113,292.788 241.805,292.495 242.097 C 292.427 242.166,292.467 242.222,292.585 242.222 C 292.847 242.222,298.800 250.875,298.722 251.142 C 298.692 251.247,298.763 251.333,298.881 251.333 C 299.146 251.333,300.963 253.980,300.963 254.366 C 300.963 254.521,301.086 254.695,301.236 254.752 C 301.537 254.868,306.831 262.528,306.661 262.602 C 306.603 262.627,306.717 262.777,306.915 262.935 C 307.373 263.301,311.778 269.700,311.778 269.998 C 311.778 270.121,311.861 270.222,311.962 270.222 C 312.064 270.222,312.289 270.497,312.462 270.833 C 312.635 271.169,312.841 271.494,312.918 271.556 C 313.212 271.787,320.638 282.667,320.502 282.667 C 320.424 282.667,320.514 282.792,320.702 282.944 C 320.891 283.097,321.826 284.372,322.779 285.778 C 323.733 287.183,324.586 288.416,324.674 288.517 C 324.763 288.619,326.185 286.219,327.835 283.184 C 331.712 276.055,331.807 275.881,334.171 271.556 C 335.273 269.539,336.473 267.339,336.839 266.667 C 337.204 265.994,338.981 262.744,340.787 259.444 C 342.593 256.144,344.258 253.069,344.485 252.611 C 344.713 252.153,345.014 251.778,345.153 251.778 C 345.293 251.778,345.345 251.715,345.269 251.639 C 345.193 251.563,345.486 250.838,345.921 250.028 C 350.825 240.895,358.338 227.174,358.531 226.999 C 358.667 226.877,358.808 226.635,358.846 226.461 C 358.936 226.044,361.087 222.062,361.412 221.710 C 361.552 221.558,361.691 221.313,361.721 221.166 C 361.763 220.954,366.907 211.446,374.434 197.667 C 374.768 197.056,375.471 195.756,375.996 194.778 C 376.522 193.800,377.136 192.692,377.360 192.315 L 377.768 191.630 375.717 189.991 C 374.589 189.089,373.567 188.270,373.444 188.170 C 373.322 188.071,371.872 186.936,370.222 185.648 C 368.572 184.360,367.111 183.163,366.976 182.987 C 366.840 182.811,366.663 182.667,366.582 182.667 C 366.255 182.667,361.778 178.979,361.778 178.709 C 361.778 178.549,361.687 178.474,361.576 178.543 C 361.465 178.612,360.546 178.016,359.535 177.219 C 358.524 176.422,357.627 175.847,357.543 175.941 C 357.459 176.034,355.363 179.361,352.884 183.333 C 350.406 187.306,348.259 190.656,348.112 190.778 C 347.965 190.900,347.843 191.083,347.840 191.185 C 347.837 191.286,345.501 195.086,342.649 199.629 C 339.797 204.172,335.937 210.332,334.070 213.317 C 332.204 216.303,330.566 218.814,330.431 218.897 C 330.295 218.981,330.218 219.096,330.259 219.153 C 330.300 219.211,329.923 219.899,329.422 220.684 C 328.921 221.469,327.189 224.236,325.573 226.833 C 322.076 232.455,322.113 232.431,320.551 230.017 C 320.004 229.170,319.556 228.379,319.556 228.257 C 319.556 228.136,319.468 228.004,319.361 227.963 C 319.122 227.872,311.793 216.631,311.801 216.369 C 311.805 216.266,311.669 216.066,311.500 215.924 C 311.331 215.783,310.159 214.067,308.895 212.111 C 307.630 210.156,306.012 207.689,305.298 206.629 C 304.584 205.569,304.000 204.657,304.000 204.601 C 304.000 204.545,303.303 203.472,302.452 202.217 C 301.600 200.962,300.956 199.849,301.020 199.745 C 301.085 199.641,301.042 199.556,300.925 199.556 C 300.809 199.556,299.818 198.181,298.723 196.500 C 295.731 191.905,295.456 191.459,295.508 191.278 C 295.534 191.186,295.469 191.111,295.362 191.111 C 295.145 191.111,292.683 187.311,292.741 187.065 C 292.761 186.979,292.615 186.779,292.416 186.621 C 292.009 186.297,288.667 181.194,288.667 180.896 C 288.667 180.790,288.586 180.670,288.487 180.630 C 288.389 180.589,286.789 178.216,284.932 175.357 C 283.075 172.498,281.556 170.278,281.556 170.423 C 281.556 170.568,281.285 170.957,280.955 171.288 C 280.624 171.618,280.399 171.904,280.455 171.923 C 280.510 171.942,280.006 172.732,279.333 173.678 C 278.661 174.624,277.823 175.808,277.472 176.310 C 272.777 183.010,269.480 187.556,269.315 187.556 C 269.203 187.556,269.136 187.635,269.167 187.733 C 269.241 187.969,267.533 190.444,267.296 190.444 C 267.194 190.444,267.136 190.521,267.167 190.615 C 267.229 190.805,250.103 215.082,249.633 215.469 C 249.468 215.605,249.333 215.785,249.333 215.870 C 249.333 216.080,245.577 221.388,245.232 221.667 C 245.080 221.789,244.946 221.968,244.934 222.064 C 244.826 222.910,239.031 230.433,238.519 230.390 C 238.026 230.350,232.118 222.173,231.578 220.784 C 231.529 220.658,231.421 220.506,231.339 220.444 C 231.256 220.383,228.604 216.483,225.446 211.778 C 222.288 207.072,218.783 201.872,217.656 200.222 C 216.529 198.572,215.078 196.322,214.431 195.222 C 213.785 194.122,212.886 192.672,212.434 192.000 C 211.204 190.170,201.037 172.379,201.037 172.057 C 201.037 171.903,200.962 171.778,200.870 171.778 C 200.657 171.778,195.928 163.540,195.927 163.167 C 195.926 163.014,195.856 162.889,195.770 162.889 C 195.611 162.889,192.888 158.299,192.817 157.911 C 192.795 157.794,192.637 157.524,192.465 157.311 C 192.294 157.098,191.832 156.341,191.439 155.628 C 191.047 154.916,188.861 151.103,186.581 147.155 C 184.301 143.206,182.413 139.857,182.385 139.711 C 182.357 139.565,182.224 139.346,182.091 139.223 C 181.958 139.100,180.230 136.150,178.250 132.667 C 176.270 129.183,174.560 126.183,174.450 126.000 C 174.339 125.817,172.275 122.236,169.861 118.042 C 167.448 113.848,165.367 110.278,165.237 110.108 C 165.052 109.866,164.392 110.760,162.233 114.177 " stroke="none" fill="#ffffff" fill-rule="evenodd"></path><path id="path2" d="M162.233 114.177 C 160.711 116.585,159.386 118.589,159.288 118.630 C 159.191 118.670,159.111 118.795,159.111 118.906 C 159.111 119.188,156.439 123.388,156.059 123.702 C 155.888 123.844,155.756 124.044,155.765 124.146 C 155.774 124.249,155.631 124.509,155.446 124.725 C 155.262 124.940,155.111 125.184,155.111 125.267 C 155.111 125.483,152.811 128.985,152.611 129.074 C 152.519 129.115,152.444 129.237,152.444 129.344 C 152.444 129.637,150.204 133.111,150.015 133.111 C 149.925 133.111,149.851 133.236,149.850 133.389 C 149.849 133.542,149.169 134.717,148.340 136.000 C 147.510 137.283,146.508 138.833,146.113 139.444 C 145.718 140.056,143.916 142.906,142.109 145.778 C 140.302 148.650,138.682 151.116,138.508 151.258 C 138.335 151.399,138.209 151.580,138.228 151.660 C 138.272 151.837,129.593 165.487,129.164 165.915 C 128.995 166.084,128.909 166.222,128.972 166.222 C 129.107 166.222,122.545 176.591,122.046 177.167 C 121.370 177.947,120.960 177.627,119.011 174.799 C 117.966 173.284,117.111 171.970,117.111 171.880 C 117.111 171.789,116.976 171.605,116.811 171.469 C 116.339 171.082,107.882 158.631,107.944 158.415 C 107.975 158.309,107.907 158.222,107.794 158.222 C 107.568 158.222,104.222 153.446,104.222 153.124 C 104.222 153.015,104.139 152.893,104.037 152.852 C 103.693 152.714,96.444 142.042,96.444 141.673 C 96.444 141.472,96.364 141.357,96.266 141.417 C 96.114 141.511,93.172 137.445,92.911 136.782 C 92.862 136.657,92.755 136.506,92.673 136.444 C 92.375 136.222,88.000 129.775,88.000 129.557 C 88.000 129.434,87.925 129.333,87.833 129.333 C 87.742 129.333,87.371 128.858,87.010 128.277 C 86.648 127.697,86.293 127.172,86.221 127.111 C 85.973 126.903,81.222 119.915,81.319 119.902 C 81.372 119.895,81.149 119.601,80.823 119.250 C 80.497 118.898,80.285 118.523,80.351 118.416 C 80.417 118.310,80.377 118.222,80.263 118.222 C 80.020 118.222,75.333 111.475,75.333 111.126 C 75.333 110.556,74.852 110.976,74.333 112.000 C 74.024 112.611,73.689 113.111,73.589 113.111 C 73.489 113.111,73.407 113.241,73.407 113.399 C 73.407 113.558,72.455 115.433,71.290 117.566 C 70.125 119.699,68.984 121.794,68.753 122.222 C 68.522 122.650,68.281 123.050,68.216 123.111 C 68.152 123.172,67.911 123.647,67.682 124.167 C 67.453 124.686,67.181 125.111,67.077 125.111 C 66.974 125.111,66.914 125.187,66.944 125.279 C 67.014 125.488,60.675 137.171,60.391 137.358 C 60.277 137.433,60.187 137.583,60.191 137.692 C 60.198 137.909,57.786 142.489,57.570 142.667 C 57.496 142.728,57.314 143.054,57.166 143.391 C 57.018 143.728,56.085 145.478,55.093 147.279 C 54.101 149.081,52.941 151.205,52.515 151.999 C 52.088 152.792,51.673 153.492,51.592 153.554 C 51.511 153.616,51.421 153.787,51.392 153.934 C 51.328 154.263,43.565 168.512,43.365 168.667 C 43.287 168.728,43.202 168.887,43.178 169.021 C 43.123 169.328,35.600 183.117,35.266 183.522 C 35.131 183.688,34.999 183.938,34.975 184.078 C 34.924 184.368,28.441 196.274,28.241 196.444 C 28.170 196.506,28.093 196.656,28.071 196.778 C 28.037 196.968,24.650 203.248,22.662 206.809 L 22.024 207.951 24.234 209.698 C 25.450 210.658,26.444 211.519,26.444 211.611 C 26.444 211.703,26.561 211.778,26.704 211.778 C 26.846 211.778,27.121 211.931,27.315 212.118 C 27.508 212.305,30.667 214.809,34.333 217.683 C 38.000 220.556,41.153 223.078,41.341 223.287 C 41.956 223.972,42.164 223.793,43.801 221.160 C 44.692 219.728,45.501 218.522,45.599 218.481 C 45.697 218.441,45.778 218.316,45.778 218.204 C 45.778 217.922,58.909 197.018,59.144 196.926 C 59.248 196.885,59.333 196.749,59.333 196.624 C 59.333 196.375,62.367 191.445,62.774 191.032 C 62.912 190.892,63.090 190.606,63.169 190.397 C 63.248 190.188,63.751 189.338,64.287 188.508 C 64.822 187.679,66.691 184.700,68.441 181.889 C 70.191 179.078,71.755 176.668,71.919 176.534 C 72.082 176.399,72.164 176.239,72.102 176.176 C 72.040 176.114,72.142 175.937,72.328 175.782 C 72.514 175.628,72.667 175.420,72.667 175.321 C 72.667 174.627,77.196 168.000,77.670 168.000 C 78.200 168.000,79.234 169.136,78.956 169.414 C 78.879 169.492,78.917 169.556,79.041 169.556 C 79.271 169.556,80.667 171.651,80.667 171.996 C 80.667 172.100,80.754 172.219,80.860 172.259 C 81.117 172.357,84.036 176.889,83.843 176.889 C 83.760 176.889,83.852 177.014,84.047 177.167 C 84.447 177.481,87.778 182.581,87.778 182.880 C 87.778 182.987,87.863 183.107,87.967 183.148 C 88.191 183.236,90.654 187.027,90.728 187.397 C 90.755 187.537,90.942 187.805,91.143 187.992 C 91.437 188.267,100.206 201.675,114.839 224.222 C 117.548 228.397,118.072 229.129,118.226 228.949 C 118.393 228.754,121.389 224.544,127.441 216.000 C 129.735 212.761,131.700 210.078,131.806 210.037 C 131.913 209.996,132.000 209.867,132.000 209.750 C 132.000 209.479,139.098 199.470,139.361 199.370 C 139.468 199.330,139.556 199.206,139.556 199.095 C 139.556 198.821,142.291 194.949,143.167 193.984 C 143.381 193.748,143.531 193.527,143.500 193.493 C 143.389 193.366,147.588 187.556,147.791 187.556 C 147.906 187.556,147.975 187.478,147.944 187.382 C 147.870 187.150,150.028 184.000,150.261 184.000 C 150.362 184.000,150.444 183.895,150.444 183.767 C 150.444 183.451,152.264 180.889,152.488 180.889 C 152.586 180.889,152.667 180.781,152.667 180.650 C 152.667 180.325,154.924 177.111,155.152 177.111 C 155.252 177.111,155.333 177.006,155.333 176.878 C 155.333 176.187,160.703 169.111,161.227 169.111 C 161.726 169.111,167.545 177.238,167.466 177.824 C 167.454 177.910,167.606 178.110,167.804 178.268 C 168.002 178.426,171.142 183.006,174.781 188.444 C 178.421 193.883,181.534 198.491,181.700 198.685 C 181.865 198.878,181.934 199.103,181.852 199.185 C 181.771 199.266,181.807 199.333,181.934 199.333 C 182.146 199.333,184.136 202.252,185.344 204.333 C 185.628 204.822,186.377 206.022,187.010 207.000 C 187.643 207.978,188.410 209.228,188.714 209.778 C 189.018 210.328,189.477 211.121,189.733 211.540 C 189.990 211.959,190.148 212.384,190.086 212.484 C 190.024 212.585,190.077 212.667,190.203 212.667 C 190.330 212.667,190.588 212.967,190.778 213.333 C 190.967 213.700,191.051 214.000,190.963 214.000 C 190.876 214.000,190.958 214.125,191.147 214.278 C 191.569 214.620,196.963 223.992,196.963 224.384 C 196.963 224.540,197.039 224.667,197.133 224.667 C 197.319 224.667,199.083 227.769,199.077 228.086 C 199.075 228.195,199.174 228.346,199.298 228.423 C 199.601 228.610,205.347 238.666,205.153 238.670 C 205.069 238.672,205.117 238.748,205.260 238.839 C 205.513 239.000,210.558 247.665,210.832 248.408 C 210.906 248.612,211.034 248.828,211.116 248.889 C 211.198 248.950,213.234 252.450,215.641 256.667 C 218.048 260.883,220.107 264.483,220.217 264.667 C 222.099 267.824,225.979 274.679,226.096 275.056 C 226.182 275.331,226.339 275.556,226.444 275.556 C 226.644 275.556,227.010 276.430,226.933 276.722 C 226.909 276.814,226.980 276.889,227.092 276.889 C 227.300 276.889,228.848 279.508,228.850 279.864 C 228.850 279.973,228.945 280.123,229.061 280.197 C 229.176 280.272,230.442 282.383,231.873 284.889 C 233.305 287.394,234.545 289.515,234.629 289.602 C 234.713 289.688,236.423 287.163,238.429 283.991 C 240.435 280.818,242.160 278.222,242.261 278.222 C 242.362 278.222,242.422 278.147,242.395 278.056 C 242.320 277.803,243.569 275.778,243.799 275.778 C 243.910 275.778,243.975 275.697,243.944 275.598 C 243.878 275.382,247.321 269.921,247.591 269.815 C 247.694 269.774,247.778 269.644,247.778 269.525 C 247.778 269.232,252.872 261.264,253.190 261.059 C 253.330 260.969,253.374 260.894,253.288 260.892 C 253.071 260.888,267.708 237.949,268.131 237.631 C 268.320 237.490,268.453 237.307,268.428 237.225 C 268.352 236.979,269.346 235.333,269.570 235.333 C 269.684 235.333,269.753 235.253,269.722 235.154 C 269.548 234.589,277.907 221.992,278.418 222.051 C 278.960 222.113,292.788 241.805,292.495 242.097 C 292.427 242.166,292.467 242.222,292.585 242.222 C 292.847 242.222,298.800 250.875,298.722 251.142 C 298.692 251.247,298.763 251.333,298.881 251.333 C 299.146 251.333,300.963 253.980,300.963 254.366 C 300.963 254.521,301.086 254.695,301.236 254.752 C 301.537 254.868,306.831 262.528,306.661 262.602 C 306.603 262.627,306.717 262.777,306.915 262.935 C 307.373 263.301,311.778 269.700,311.778 269.998 C 311.778 270.121,311.861 270.222,311.962 270.222 C 312.064 270.222,312.289 270.497,312.462 270.833 C 312.635 271.169,312.841 271.494,312.918 271.556 C 313.212 271.787,320.638 282.667,320.502 282.667 C 320.424 282.667,320.514 282.792,320.702 282.944 C 320.891 283.097,321.826 284.372,322.779 285.778 C 323.733 287.183,324.586 288.416,324.674 288.517 C 324.763 288.619,326.185 286.219,327.835 283.184 C 331.712 276.055,331.807 275.881,334.171 271.556 C 335.273 269.539,336.473 267.339,336.839 266.667 C 337.204 265.994,338.981 262.744,340.787 259.444 C 342.593 256.144,344.258 253.069,344.485 252.611 C 344.713 252.153,345.014 251.778,345.153 251.778 C 345.293 251.778,345.345 251.715,345.269 251.639 C 345.193 251.563,345.486 250.838,345.921 250.028 C 350.825 240.895,358.338 227.174,358.531 226.999 C 358.667 226.877,358.808 226.635,358.846 226.461 C 358.936 226.044,361.087 222.062,361.412 221.710 C 361.552 221.558,361.691 221.313,361.721 221.166 C 361.763 220.954,366.907 211.446,374.434 197.667 C 374.768 197.056,375.471 195.756,375.996 194.778 C 376.522 193.800,377.136 192.692,377.360 192.315 L 377.768 191.630 375.717 189.991 C 374.589 189.089,373.567 188.270,373.444 188.170 C 373.322 188.071,371.872 186.936,370.222 185.648 C 368.572 184.360,367.111 183.163,366.976 182.987 C 366.840 182.811,366.663 182.667,366.582 182.667 C 366.255 182.667,361.778 178.979,361.778 178.709 C 361.778 178.549,361.687 178.474,361.576 178.543 C 361.465 178.612,360.546 178.016,359.535 177.219 C 358.524 176.422,357.627 175.847,357.543 175.941 C 357.459 176.034,355.363 179.361,352.884 183.333 C 350.406 187.306,348.259 190.656,348.112 190.778 C 347.965 190.900,347.843 191.083,347.840 191.185 C 347.837 191.286,345.501 195.086,342.649 199.629 C 339.797 204.172,335.937 210.332,334.070 213.317 C 332.204 216.303,330.566 218.814,330.431 218.897 C 330.295 218.981,330.218 219.096,330.259 219.153 C 330.300 219.211,329.923 219.899,329.422 220.684 C 328.921 221.469,327.189 224.236,325.573 226.833 C 322.076 232.455,322.113 232.431,320.551 230.017 C 320.004 229.170,319.556 228.379,319.556 228.257 C 319.556 228.136,319.468 228.004,319.361 227.963 C 319.122 227.872,311.793 216.631,311.801 216.369 C 311.805 216.266,311.669 216.066,311.500 215.924 C 311.331 215.783,310.159 214.067,308.895 212.111 C 307.630 210.156,306.012 207.689,305.298 206.629 C 304.584 205.569,304.000 204.657,304.000 204.601 C 304.000 204.545,303.303 203.472,302.452 202.217 C 301.600 200.962,300.956 199.849,301.020 199.745 C 301.085 199.641,301.042 199.556,300.925 199.556 C 300.809 199.556,299.818 198.181,298.723 196.500 C 295.731 191.905,295.456 191.459,295.508 191.278 C 295.534 191.186,295.469 191.111,295.362 191.111 C 295.145 191.111,292.683 187.311,292.741 187.065 C 292.761 186.979,292.615 186.779,292.416 186.621 C 292.009 186.297,288.667 181.194,288.667 180.896 C 288.667 180.790,288.586 180.670,288.487 180.630 C 288.389 180.589,286.789 178.216,284.932 175.357 C 283.075 172.498,281.556 170.278,281.556 170.423 C 281.556 170.568,281.285 170.957,280.955 171.288 C 280.624 171.618,280.399 171.904,280.455 171.923 C 280.510 171.942,280.006 172.732,279.333 173.678 C 278.661 174.624,277.823 175.808,277.472 176.310 C 272.777 183.010,269.480 187.556,269.315 187.556 C 269.203 187.556,269.136 187.635,269.167 187.733 C 269.241 187.969,267.533 190.444,267.296 190.444 C 267.194 190.444,267.136 190.521,267.167 190.615 C 267.229 190.805,250.103 215.082,249.633 215.469 C 249.468 215.605,249.333 215.785,249.333 215.870 C 249.333 216.080,245.577 221.388,245.232 221.667 C 245.080 221.789,244.946 221.968,244.934 222.064 C 244.826 222.910,239.031 230.433,238.519 230.390 C 238.026 230.350,232.118 222.173,231.578 220.784 C 231.529 220.658,231.421 220.506,231.339 220.444 C 231.256 220.383,228.604 216.483,225.446 211.778 C 222.288 207.072,218.783 201.872,217.656 200.222 C 216.529 198.572,215.078 196.322,214.431 195.222 C 213.785 194.122,212.886 192.672,212.434 192.000 C 211.204 190.170,201.037 172.379,201.037 172.057 C 201.037 171.903,200.962 171.778,200.870 171.778 C 200.657 171.778,195.928 163.540,195.927 163.167 C 195.926 163.014,195.856 162.889,195.770 162.889 C 195.611 162.889,192.888 158.299,192.817 157.911 C 192.795 157.794,192.637 157.524,192.465 157.311 C 192.294 157.098,191.832 156.341,191.439 155.628 C 191.047 154.916,188.861 151.103,186.581 147.155 C 184.301 143.206,182.413 139.857,182.385 139.711 C 182.357 139.565,182.224 139.346,182.091 139.223 C 181.958 139.100,180.230 136.150,178.250 132.667 C 176.270 129.183,174.560 126.183,174.450 126.000 C 174.339 125.817,172.275 122.236,169.861 118.042 C 167.448 113.848,165.367 110.278,165.237 110.108 C 165.052 109.866,164.392 110.760,162.233 114.177 " stroke="none" fill="#ffffff" fill-rule="evenodd"></path><path id="path3" d="M162.233 114.177 C 160.711 116.585,159.386 118.589,159.288 118.630 C 159.191 118.670,159.111 118.795,159.111 118.906 C 159.111 119.188,156.439 123.388,156.059 123.702 C 155.888 123.844,155.756 124.044,155.765 124.146 C 155.774 124.249,155.631 124.509,155.446 124.725 C 155.262 124.940,155.111 125.184,155.111 125.267 C 155.111 125.483,152.811 128.985,152.611 129.074 C 152.519 129.115,152.444 129.237,152.444 129.344 C 152.444 129.637,150.204 133.111,150.015 133.111 C 149.925 133.111,149.851 133.236,149.850 133.389 C 149.849 133.542,149.169 134.717,148.340 136.000 C 147.510 137.283,146.508 138.833,146.113 139.444 C 145.718 140.056,143.916 142.906,142.109 145.778 C 140.302 148.650,138.682 151.116,138.508 151.258 C 138.335 151.399,138.209 151.580,138.228 151.660 C 138.272 151.837,129.593 165.487,129.164 165.915 C 128.995 166.084,128.909 166.222,128.972 166.222 C 129.107 166.222,122.545 176.591,122.046 177.167 C 121.370 177.947,120.960 177.627,119.011 174.799 C 117.966 173.284,117.111 171.970,117.111 171.880 C 117.111 171.789,116.976 171.605,116.811 171.469 C 116.339 171.082,107.882 158.631,107.944 158.415 C 107.975 158.309,107.907 158.222,107.794 158.222 C 107.568 158.222,104.222 153.446,104.222 153.124 C 104.222 153.015,104.139 152.893,104.037 152.852 C 103.693 152.714,96.444 142.042,96.444 141.673 C 96.444 141.472,96.364 141.357,96.266 141.417 C 96.114 141.511,93.172 137.445,92.911 136.782 C 92.862 136.657,92.755 136.506,92.673 136.444 C 92.375 136.222,88.000 129.775,88.000 129.557 C 88.000 129.434,87.925 129.333,87.833 129.333 C 87.742 129.333,87.371 128.858,87.010 128.277 C 86.648 127.697,86.293 127.172,86.221 127.111 C 85.973 126.903,81.222 119.915,81.319 119.902 C 81.372 119.895,81.149 119.601,80.823 119.250 C 80.497 118.898,80.285 118.523,80.351 118.416 C 80.417 118.310,80.377 118.222,80.263 118.222 C 80.020 118.222,75.333 111.475,75.333 111.126 C 75.333 110.556,74.852 110.976,74.333 112.000 C 74.024 112.611,73.689 113.111,73.589 113.111 C 73.489 113.111,73.407 113.241,73.407 113.399 C 73.407 113.558,72.455 115.433,71.290 117.566 C 70.125 119.699,68.984 121.794,68.753 122.222 C 68.522 122.650,68.281 123.050,68.216 123.111 C 68.152 123.172,67.911 123.647,67.682 124.167 C 67.453 124.686,67.181 125.111,67.077 125.111 C 66.974 125.111,66.914 125.187,66.944 125.279 C 67.014 125.488,60.675 137.171,60.391 137.358 C 60.277 137.433,60.187 137.583,60.191 137.692 C 60.198 137.909,57.786 142.489,57.570 142.667 C 57.496 142.728,57.314 143.054,57.166 143.391 C 57.018 143.728,56.085 145.478,55.093 147.279 C 54.101 149.081,52.941 151.205,52.515 151.999 C 52.088 152.792,51.673 153.492,51.592 153.554 C 51.511 153.616,51.421 153.787,51.392 153.934 C 51.328 154.263,43.565 168.512,43.365 168.667 C 43.287 168.728,43.202 168.887,43.178 169.021 C 43.123 169.328,35.600 183.117,35.266 183.522 C 35.131 183.688,34.999 183.938,34.975 184.078 C 34.924 184.368,28.441 196.274,28.241 196.444 C 28.170 196.506,28.093 196.656,28.071 196.778 C 28.037 196.968,24.650 203.248,22.662 206.809 L 22.024 207.951 24.234 209.698 C 25.450 210.658,26.444 211.519,26.444 211.611 C 26.444 211.703,26.561 211.778,26.704 211.778 C 26.846 211.778,27.121 211.931,27.315 212.118 C 27.508 212.305,30.667 214.809,34.333 217.683 C 38.000 220.556,41.153 223.078,41.341 223.287 C 41.956 223.972,42.164 223.793,43.801 221.160 C 44.692 219.728,45.501 218.522,45.599 218.481 C 45.697 218.441,45.778 218.316,45.778 218.204 C 45.778 217.922,58.909 197.018,59.144 196.926 C 59.248 196.885,59.333 196.749,59.333 196.624 C 59.333 196.375,62.367 191.445,62.774 191.032 C 62.912 190.892,63.090 190.606,63.169 190.397 C 63.248 190.188,63.751 189.338,64.287 188.508 C 64.822 187.679,66.691 184.700,68.441 181.889 C 70.191 179.078,71.755 176.668,71.919 176.534 C 72.082 176.399,72.164 176.239,72.102 176.176 C 72.040 176.114,72.142 175.937,72.328 175.782 C 72.514 175.628,72.667 175.420,72.667 175.321 C 72.667 174.627,77.196 168.000,77.670 168.000 C 78.200 168.000,79.234 169.136,78.956 169.414 C 78.879 169.492,78.917 169.556,79.041 169.556 C 79.271 169.556,80.667 171.651,80.667 171.996 C 80.667 172.100,80.754 172.219,80.860 172.259 C 81.117 172.357,84.036 176.889,83.843 176.889 C 83.760 176.889,83.852 177.014,84.047 177.167 C 84.447 177.481,87.778 182.581,87.778 182.880 C 87.778 182.987,87.863 183.107,87.967 183.148 C 88.191 183.236,90.654 187.027,90.728 187.397 C 90.755 187.537,90.942 187.805,91.143 187.992 C 91.437 188.267,100.206 201.675,114.839 224.222 C 117.548 228.397,118.072 229.129,118.226 228.949 C 118.393 228.754,121.389 224.544,127.441 216.000 C 129.735 212.761,131.700 210.078,131.806 210.037 C 131.913 209.996,132.000 209.867,132.000 209.750 C 132.000 209.479,139.098 199.470,139.361 199.370 C 139.468 199.330,139.556 199.206,139.556 199.095 C 139.556 198.821,142.291 194.949,143.167 193.984 C 143.381 193.748,143.531 193.527,143.500 193.493 C 143.389 193.366,147.588 187.556,147.791 187.556 C 147.906 187.556,147.975 187.478,147.944 187.382 C 147.870 187.150,150.028 184.000,150.261 184.000 C 150.362 184.000,150.444 183.895,150.444 183.767 C 150.444 183.451,152.264 180.889,152.488 180.889 C 152.586 180.889,152.667 180.781,152.667 180.650 C 152.667 180.325,154.924 177.111,155.152 177.111 C 155.252 177.111,155.333 177.006,155.333 176.878 C 155.333 176.187,160.703 169.111,161.227 169.111 C 161.726 169.111,167.545 177.238,167.466 177.824 C 167.454 177.910,167.606 178.110,167.804 178.268 C 168.002 178.426,171.142 183.006,174.781 188.444 C 178.421 193.883,181.534 198.491,181.700 198.685 C 181.865 198.878,181.934 199.103,181.852 199.185 C 181.771 199.266,181.807 199.333,181.934 199.333 C 182.146 199.333,184.136 202.252,185.344 204.333 C 185.628 204.822,186.377 206.022,187.010 207.000 C 187.643 207.978,188.410 209.228,188.714 209.778 C 189.018 210.328,189.477 211.121,189.733 211.540 C 189.990 211.959,190.148 212.384,190.086 212.484 C 190.024 212.585,190.077 212.667,190.203 212.667 C 190.330 212.667,190.588 212.967,190.778 213.333 C 190.967 213.700,191.051 214.000,190.963 214.000 C 190.876 214.000,190.958 214.125,191.147 214.278 C 191.569 214.620,196.963 223.992,196.963 224.384 C 196.963 224.540,197.039 224.667,197.133 224.667 C 197.319 224.667,199.083 227.769,199.077 228.086 C 199.075 228.195,199.174 228.346,199.298 228.423 C 199.601 228.610,205.347 238.666,205.153 238.670 C 205.069 238.672,205.117 238.748,205.260 238.839 C 205.513 239.000,210.558 247.665,210.832 248.408 C 210.906 248.612,211.034 248.828,211.116 248.889 C 211.198 248.950,213.234 252.450,215.641 256.667 C 218.048 260.883,220.107 264.483,220.217 264.667 C 222.099 267.824,225.979 274.679,226.096 275.056 C 226.182 275.331,226.339 275.556,226.444 275.556 C 226.644 275.556,227.010 276.430,226.933 276.722 C 226.909 276.814,226.980 276.889,227.092 276.889 C 227.300 276.889,228.848 279.508,228.850 279.864 C 228.850 279.973,228.945 280.123,229.061 280.197 C 229.176 280.272,230.442 282.383,231.873 284.889 C 233.305 287.394,234.545 289.515,234.629 289.602 C 234.713 289.688,236.423 287.163,238.429 283.991 C 240.435 280.818,242.160 278.222,242.261 278.222 C 242.362 278.222,242.422 278.147,242.395 278.056 C 242.320 277.803,243.569 275.778,243.799 275.778 C 243.910 275.778,243.975 275.697,243.944 275.598 C 243.878 275.382,247.321 269.921,247.591 269.815 C 247.694 269.774,247.778 269.644,247.778 269.525 C 247.778 269.232,252.872 261.264,253.190 261.059 C 253.330 260.969,253.374 260.894,253.288 260.892 C 253.071 260.888,267.708 237.949,268.131 237.631 C 268.320 237.490,268.453 237.307,268.428 237.225 C 268.352 236.979,269.346 235.333,269.570 235.333 C 269.684 235.333,269.753 235.253,269.722 235.154 C 269.548 234.589,277.907 221.992,278.418 222.051 C 278.960 222.113,292.788 241.805,292.495 242.097 C 292.427 242.166,292.467 242.222,292.585 242.222 C 292.847 242.222,298.800 250.875,298.722 251.142 C 298.692 251.247,298.763 251.333,298.881 251.333 C 299.146 251.333,300.963 253.980,300.963 254.366 C 300.963 254.521,301.086 254.695,301.236 254.752 C 301.537 254.868,306.831 262.528,306.661 262.602 C 306.603 262.627,306.717 262.777,306.915 262.935 C 307.373 263.301,311.778 269.700,311.778 269.998 C 311.778 270.121,311.861 270.222,311.962 270.222 C 312.064 270.222,312.289 270.497,312.462 270.833 C 312.635 271.169,312.841 271.494,312.918 271.556 C 313.212 271.787,320.638 282.667,320.502 282.667 C 320.424 282.667,320.514 282.792,320.702 282.944 C 320.891 283.097,321.826 284.372,322.779 285.778 C 323.733 287.183,324.586 288.416,324.674 288.517 C 324.763 288.619,326.185 286.219,327.835 283.184 C 331.712 276.055,331.807 275.881,334.171 271.556 C 335.273 269.539,336.473 267.339,336.839 266.667 C 337.204 265.994,338.981 262.744,340.787 259.444 C 342.593 256.144,344.258 253.069,344.485 252.611 C 344.713 252.153,345.014 251.778,345.153 251.778 C 345.293 251.778,345.345 251.715,345.269 251.639 C 345.193 251.563,345.486 250.838,345.921 250.028 C 350.825 240.895,358.338 227.174,358.531 226.999 C 358.667 226.877,358.808 226.635,358.846 226.461 C 358.936 226.044,361.087 222.062,361.412 221.710 C 361.552 221.558,361.691 221.313,361.721 221.166 C 361.763 220.954,366.907 211.446,374.434 197.667 C 374.768 197.056,375.471 195.756,375.996 194.778 C 376.522 193.800,377.136 192.692,377.360 192.315 L 377.768 191.630 375.717 189.991 C 374.589 189.089,373.567 188.270,373.444 188.170 C 373.322 188.071,371.872 186.936,370.222 185.648 C 368.572 184.360,367.111 183.163,366.976 182.987 C 366.840 182.811,366.663 182.667,366.582 182.667 C 366.255 182.667,361.778 178.979,361.778 178.709 C 361.778 178.549,361.687 178.474,361.576 178.543 C 361.465 178.612,360.546 178.016,359.535 177.219 C 358.524 176.422,357.627 175.847,357.543 175.941 C 357.459 176.034,355.363 179.361,352.884 183.333 C 350.406 187.306,348.259 190.656,348.112 190.778 C 347.965 190.900,347.843 191.083,347.840 191.185 C 347.837 191.286,345.501 195.086,342.649 199.629 C 339.797 204.172,335.937 210.332,334.070 213.317 C 332.204 216.303,330.566 218.814,330.431 218.897 C 330.295 218.981,330.218 219.096,330.259 219.153 C 330.300 219.211,329.923 219.899,329.422 220.684 C 328.921 221.469,327.189 224.236,325.573 226.833 C 322.076 232.455,322.113 232.431,320.551 230.017 C 320.004 229.170,319.556 228.379,319.556 228.257 C 319.556 228.136,319.468 228.004,319.361 227.963 C 319.122 227.872,311.793 216.631,311.801 216.369 C 311.805 216.266,311.669 216.066,311.500 215.924 C 311.331 215.783,310.159 214.067,308.895 212.111 C 307.630 210.156,306.012 207.689,305.298 206.629 C 304.584 205.569,304.000 204.657,304.000 204.601 C 304.000 204.545,303.303 203.472,302.452 202.217 C 301.600 200.962,300.956 199.849,301.020 199.745 C 301.085 199.641,301.042 199.556,300.925 199.556 C 300.809 199.556,299.818 198.181,298.723 196.500 C 295.731 191.905,295.456 191.459,295.508 191.278 C 295.534 191.186,295.469 191.111,295.362 191.111 C 295.145 191.111,292.683 187.311,292.741 187.065 C 292.761 186.979,292.615 186.779,292.416 186.621 C 292.009 186.297,288.667 181.194,288.667 180.896 C 288.667 180.790,288.586 180.670,288.487 180.630 C 288.389 180.589,286.789 178.216,284.932 175.357 C 283.075 172.498,281.556 170.278,281.556 170.423 C 281.556 170.568,281.285 170.957,280.955 171.288 C 280.624 171.618,280.399 171.904,280.455 171.923 C 280.510 171.942,280.006 172.732,279.333 173.678 C 278.661 174.624,277.823 175.808,277.472 176.310 C 272.777 183.010,269.480 187.556,269.315 187.556 C 269.203 187.556,269.136 187.635,269.167 187.733 C 269.241 187.969,267.533 190.444,267.296 190.444 C 267.194 190.444,267.136 190.521,267.167 190.615 C 267.229 190.805,250.103 215.082,249.633 215.469 C 249.468 215.605,249.333 215.785,249.333 215.870 C 249.333 216.080,245.577 221.388,245.232 221.667 C 245.080 221.789,244.946 221.968,244.934 222.064 C 244.826 222.910,239.031 230.433,238.519 230.390 C 238.026 230.350,232.118 222.173,231.578 220.784 C 231.529 220.658,231.421 220.506,231.339 220.444 C 231.256 220.383,228.604 216.483,225.446 211.778 C 222.288 207.072,218.783 201.872,217.656 200.222 C 216.529 198.572,215.078 196.322,214.431 195.222 C 213.785 194.122,212.886 192.672,212.434 192.000 C 211.204 190.170,201.037 172.379,201.037 172.057 C 201.037 171.903,200.962 171.778,200.870 171.778 C 200.657 171.778,195.928 163.540,195.927 163.167 C 195.926 163.014,195.856 162.889,195.770 162.889 C 195.611 162.889,192.888 158.299,192.817 157.911 C 192.795 157.794,192.637 157.524,192.465 157.311 C 192.294 157.098,191.832 156.341,191.439 155.628 C 191.047 154.916,188.861 151.103,186.581 147.155 C 184.301 143.206,182.413 139.857,182.385 139.711 C 182.357 139.565,182.224 139.346,182.091 139.223 C 181.958 139.100,180.230 136.150,178.250 132.667 C 176.270 129.183,174.560 126.183,174.450 126.000 C 174.339 125.817,172.275 122.236,169.861 118.042 C 167.448 113.848,165.367 110.278,165.237 110.108 C 165.052 109.866,164.392 110.760,162.233 114.177 " stroke="none" fill="#ffffff" fill-rule="evenodd"></path><path id="path4" d="M162.233 114.177 C 160.711 116.585,159.386 118.589,159.288 118.630 C 159.191 118.670,159.111 118.795,159.111 118.906 C 159.111 119.188,156.439 123.388,156.059 123.702 C 155.888 123.844,155.756 124.044,155.765 124.146 C 155.774 124.249,155.631 124.509,155.446 124.725 C 155.262 124.940,155.111 125.184,155.111 125.267 C 155.111 125.483,152.811 128.985,152.611 129.074 C 152.519 129.115,152.444 129.237,152.444 129.344 C 152.444 129.637,150.204 133.111,150.015 133.111 C 149.925 133.111,149.851 133.236,149.850 133.389 C 149.849 133.542,149.169 134.717,148.340 136.000 C 147.510 137.283,146.508 138.833,146.113 139.444 C 145.718 140.056,143.916 142.906,142.109 145.778 C 140.302 148.650,138.682 151.116,138.508 151.258 C 138.335 151.399,138.209 151.580,138.228 151.660 C 138.272 151.837,129.593 165.487,129.164 165.915 C 128.995 166.084,128.909 166.222,128.972 166.222 C 129.107 166.222,122.545 176.591,122.046 177.167 C 121.370 177.947,120.960 177.627,119.011 174.799 C 117.966 173.284,117.111 171.970,117.111 171.880 C 117.111 171.789,116.976 171.605,116.811 171.469 C 116.339 171.082,107.882 158.631,107.944 158.415 C 107.975 158.309,107.907 158.222,107.794 158.222 C 107.568 158.222,104.222 153.446,104.222 153.124 C 104.222 153.015,104.139 152.893,104.037 152.852 C 103.693 152.714,96.444 142.042,96.444 141.673 C 96.444 141.472,96.364 141.357,96.266 141.417 C 96.114 141.511,93.172 137.445,92.911 136.782 C 92.862 136.657,92.755 136.506,92.673 136.444 C 92.375 136.222,88.000 129.775,88.000 129.557 C 88.000 129.434,87.925 129.333,87.833 129.333 C 87.742 129.333,87.371 128.858,87.010 128.277 C 86.648 127.697,86.293 127.172,86.221 127.111 C 85.973 126.903,81.222 119.915,81.319 119.902 C 81.372 119.895,81.149 119.601,80.823 119.250 C 80.497 118.898,80.285 118.523,80.351 118.416 C 80.417 118.310,80.377 118.222,80.263 118.222 C 80.020 118.222,75.333 111.475,75.333 111.126 C 75.333 110.556,74.852 110.976,74.333 112.000 C 74.024 112.611,73.689 113.111,73.589 113.111 C 73.489 113.111,73.407 113.241,73.407 113.399 C 73.407 113.558,72.455 115.433,71.290 117.566 C 70.125 119.699,68.984 121.794,68.753 122.222 C 68.522 122.650,68.281 123.050,68.216 123.111 C 68.152 123.172,67.911 123.647,67.682 124.167 C 67.453 124.686,67.181 125.111,67.077 125.111 C 66.974 125.111,66.914 125.187,66.944 125.279 C 67.014 125.488,60.675 137.171,60.391 137.358 C 60.277 137.433,60.187 137.583,60.191 137.692 C 60.198 137.909,57.786 142.489,57.570 142.667 C 57.496 142.728,57.314 143.054,57.166 143.391 C 57.018 143.728,56.085 145.478,55.093 147.279 C 54.101 149.081,52.941 151.205,52.515 151.999 C 52.088 152.792,51.673 153.492,51.592 153.554 C 51.511 153.616,51.421 153.787,51.392 153.934 C 51.328 154.263,43.565 168.512,43.365 168.667 C 43.287 168.728,43.202 168.887,43.178 169.021 C 43.123 169.328,35.600 183.117,35.266 183.522 C 35.131 183.688,34.999 183.938,34.975 184.078 C 34.924 184.368,28.441 196.274,28.241 196.444 C 28.170 196.506,28.093 196.656,28.071 196.778 C 28.037 196.968,24.650 203.248,22.662 206.809 L 22.024 207.951 24.234 209.698 C 25.450 210.658,26.444 211.519,26.444 211.611 C 26.444 211.703,26.561 211.778,26.704 211.778 C 26.846 211.778,27.121 211.931,27.315 212.118 C 27.508 212.305,30.667 214.809,34.333 217.683 C 38.000 220.556,41.153 223.078,41.341 223.287 C 41.956 223.972,42.164 223.793,43.801 221.160 C 44.692 219.728,45.501 218.522,45.599 218.481 C 45.697 218.441,45.778 218.316,45.778 218.204 C 45.778 217.922,58.909 197.018,59.144 196.926 C 59.248 196.885,59.333 196.749,59.333 196.624 C 59.333 196.375,62.367 191.445,62.774 191.032 C 62.912 190.892,63.090 190.606,63.169 190.397 C 63.248 190.188,63.751 189.338,64.287 188.508 C 64.822 187.679,66.691 184.700,68.441 181.889 C 70.191 179.078,71.755 176.668,71.919 176.534 C 72.082 176.399,72.164 176.239,72.102 176.176 C 72.040 176.114,72.142 175.937,72.328 175.782 C 72.514 175.628,72.667 175.420,72.667 175.321 C 72.667 174.627,77.196 168.000,77.670 168.000 C 78.200 168.000,79.234 169.136,78.956 169.414 C 78.879 169.492,78.917 169.556,79.041 169.556 C 79.271 169.556,80.667 171.651,80.667 171.996 C 80.667 172.100,80.754 172.219,80.860 172.259 C 81.117 172.357,84.036 176.889,83.843 176.889 C 83.760 176.889,83.852 177.014,84.047 177.167 C 84.447 177.481,87.778 182.581,87.778 182.880 C 87.778 182.987,87.863 183.107,87.967 183.148 C 88.191 183.236,90.654 187.027,90.728 187.397 C 90.755 187.537,90.942 187.805,91.143 187.992 C 91.437 188.267,100.206 201.675,114.839 224.222 C 117.548 228.397,118.072 229.129,118.226 228.949 C 118.393 228.754,121.389 224.544,127.441 216.000 C 129.735 212.761,131.700 210.078,131.806 210.037 C 131.913 209.996,132.000 209.867,132.000 209.750 C 132.000 209.479,139.098 199.470,139.361 199.370 C 139.468 199.330,139.556 199.206,139.556 199.095 C 139.556 198.821,142.291 194.949,143.167 193.984 C 143.381 193.748,143.531 193.527,143.500 193.493 C 143.389 193.366,147.588 187.556,147.791 187.556 C 147.906 187.556,147.975 187.478,147.944 187.382 C 147.870 187.150,150.028 184.000,150.261 184.000 C 150.362 184.000,150.444 183.895,150.444 183.767 C 150.444 183.451,152.264 180.889,152.488 180.889 C 152.586 180.889,152.667 180.781,152.667 180.650 C 152.667 180.325,154.924 177.111,155.152 177.111 C 155.252 177.111,155.333 177.006,155.333 176.878 C 155.333 176.187,160.703 169.111,161.227 169.111 C 161.726 169.111,167.545 177.238,167.466 177.824 C 167.454 177.910,167.606 178.110,167.804 178.268 C 168.002 178.426,171.142 183.006,174.781 188.444 C 178.421 193.883,181.534 198.491,181.700 198.685 C 181.865 198.878,181.934 199.103,181.852 199.185 C 181.771 199.266,181.807 199.333,181.934 199.333 C 182.146 199.333,184.136 202.252,185.344 204.333 C 185.628 204.822,186.377 206.022,187.010 207.000 C 187.643 207.978,188.410 209.228,188.714 209.778 C 189.018 210.328,189.477 211.121,189.733 211.540 C 189.990 211.959,190.148 212.384,190.086 212.484 C 190.024 212.585,190.077 212.667,190.203 212.667 C 190.330 212.667,190.588 212.967,190.778 213.333 C 190.967 213.700,191.051 214.000,190.963 214.000 C 190.876 214.000,190.958 214.125,191.147 214.278 C 191.569 214.620,196.963 223.992,196.963 224.384 C 196.963 224.540,197.039 224.667,197.133 224.667 C 197.319 224.667,199.083 227.769,199.077 228.086 C 199.075 228.195,199.174 228.346,199.298 228.423 C 199.601 228.610,205.347 238.666,205.153 238.670 C 205.069 238.672,205.117 238.748,205.260 238.839 C 205.513 239.000,210.558 247.665,210.832 248.408 C 210.906 248.612,211.034 248.828,211.116 248.889 C 211.198 248.950,213.234 252.450,215.641 256.667 C 218.048 260.883,220.107 264.483,220.217 264.667 C 222.099 267.824,225.979 274.679,226.096 275.056 C 226.182 275.331,226.339 275.556,226.444 275.556 C 226.644 275.556,227.010 276.430,226.933 276.722 C 226.909 276.814,226.980 276.889,227.092 276.889 C 227.300 276.889,228.848 279.508,228.850 279.864 C 228.850 279.973,228.945 280.123,229.061 280.197 C 229.176 280.272,230.442 282.383,231.873 284.889 C 233.305 287.394,234.545 289.515,234.629 289.602 C 234.713 289.688,236.423 287.163,238.429 283.991 C 240.435 280.818,242.160 278.222,242.261 278.222 C 242.362 278.222,242.422 278.147,242.395 278.056 C 242.320 277.803,243.569 275.778,243.799 275.778 C 243.910 275.778,243.975 275.697,243.944 275.598 C 243.878 275.382,247.321 269.921,247.591 269.815 C 247.694 269.774,247.778 269.644,247.778 269.525 C 247.778 269.232,252.872 261.264,253.190 261.059 C 253.330 260.969,253.374 260.894,253.288 260.892 C 253.071 260.888,267.708 237.949,268.131 237.631 C 268.320 237.490,268.453 237.307,268.428 237.225 C 268.352 236.979,269.346 235.333,269.570 235.333 C 269.684 235.333,269.753 235.253,269.722 235.154 C 269.548 234.589,277.907 221.992,278.418 222.051 C 278.960 222.113,292.788 241.805,292.495 242.097 C 292.427 242.166,292.467 242.222,292.585 242.222 C 292.847 242.222,298.800 250.875,298.722 251.142 C 298.692 251.247,298.763 251.333,298.881 251.333 C 299.146 251.333,300.963 253.980,300.963 254.366 C 300.963 254.521,301.086 254.695,301.236 254.752 C 301.537 254.868,306.831 262.528,306.661 262.602 C 306.603 262.627,306.717 262.777,306.915 262.935 C 307.373 263.301,311.778 269.700,311.778 269.998 C 311.778 270.121,311.861 270.222,311.962 270.222 C 312.064 270.222,312.289 270.497,312.462 270.833 C 312.635 271.169,312.841 271.494,312.918 271.556 C 313.212 271.787,320.638 282.667,320.502 282.667 C 320.424 282.667,320.514 282.792,320.702 282.944 C 320.891 283.097,321.826 284.372,322.779 285.778 C 323.733 287.183,324.586 288.416,324.674 288.517 C 324.763 288.619,326.185 286.219,327.835 283.184 C 331.712 276.055,331.807 275.881,334.171 271.556 C 335.273 269.539,336.473 267.339,336.839 266.667 C 337.204 265.994,338.981 262.744,340.787 259.444 C 342.593 256.144,344.258 253.069,344.485 252.611 C 344.713 252.153,345.014 251.778,345.153 251.778 C 345.293 251.778,345.345 251.715,345.269 251.639 C 345.193 251.563,345.486 250.838,345.921 250.028 C 350.825 240.895,358.338 227.174,358.531 226.999 C 358.667 226.877,358.808 226.635,358.846 226.461 C 358.936 226.044,361.087 222.062,361.412 221.710 C 361.552 221.558,361.691 221.313,361.721 221.166 C 361.763 220.954,366.907 211.446,374.434 197.667 C 374.768 197.056,375.471 195.756,375.996 194.778 C 376.522 193.800,377.136 192.692,377.360 192.315 L 377.768 191.630 375.717 189.991 C 374.589 189.089,373.567 188.270,373.444 188.170 C 373.322 188.071,371.872 186.936,370.222 185.648 C 368.572 184.360,367.111 183.163,366.976 182.987 C 366.840 182.811,366.663 182.667,366.582 182.667 C 366.255 182.667,361.778 178.979,361.778 178.709 C 361.778 178.549,361.687 178.474,361.576 178.543 C 361.465 178.612,360.546 178.016,359.535 177.219 C 358.524 176.422,357.627 175.847,357.543 175.941 C 357.459 176.034,355.363 179.361,352.884 183.333 C 350.406 187.306,348.259 190.656,348.112 190.778 C 347.965 190.900,347.843 191.083,347.840 191.185 C 347.837 191.286,345.501 195.086,342.649 199.629 C 339.797 204.172,335.937 210.332,334.070 213.317 C 332.204 216.303,330.566 218.814,330.431 218.897 C 330.295 218.981,330.218 219.096,330.259 219.153 C 330.300 219.211,329.923 219.899,329.422 220.684 C 328.921 221.469,327.189 224.236,325.573 226.833 C 322.076 232.455,322.113 232.431,320.551 230.017 C 320.004 229.170,319.556 228.379,319.556 228.257 C 319.556 228.136,319.468 228.004,319.361 227.963 C 319.122 227.872,311.793 216.631,311.801 216.369 C 311.805 216.266,311.669 216.066,311.500 215.924 C 311.331 215.783,310.159 214.067,308.895 212.111 C 307.630 210.156,306.012 207.689,305.298 206.629 C 304.584 205.569,304.000 204.657,304.000 204.601 C 304.000 204.545,303.303 203.472,302.452 202.217 C 301.600 200.962,300.956 199.849,301.020 199.745 C 301.085 199.641,301.042 199.556,300.925 199.556 C 300.809 199.556,299.818 198.181,298.723 196.500 C 295.731 191.905,295.456 191.459,295.508 191.278 C 295.534 191.186,295.469 191.111,295.362 191.111 C 295.145 191.111,292.683 187.311,292.741 187.065 C 292.761 186.979,292.615 186.779,292.416 186.621 C 292.009 186.297,288.667 181.194,288.667 180.896 C 288.667 180.790,288.586 180.670,288.487 180.630 C 288.389 180.589,286.789 178.216,284.932 175.357 C 283.075 172.498,281.556 170.278,281.556 170.423 C 281.556 170.568,281.285 170.957,280.955 171.288 C 280.624 171.618,280.399 171.904,280.455 171.923 C 280.510 171.942,280.006 172.732,279.333 173.678 C 278.661 174.624,277.823 175.808,277.472 176.310 C 272.777 183.010,269.480 187.556,269.315 187.556 C 269.203 187.556,269.136 187.635,269.167 187.733 C 269.241 187.969,267.533 190.444,267.296 190.444 C 267.194 190.444,267.136 190.521,267.167 190.615 C 267.229 190.805,250.103 215.082,249.633 215.469 C 249.468 215.605,249.333 215.785,249.333 215.870 C 249.333 216.080,245.577 221.388,245.232 221.667 C 245.080 221.789,244.946 221.968,244.934 222.064 C 244.826 222.910,239.031 230.433,238.519 230.390 C 238.026 230.350,232.118 222.173,231.578 220.784 C 231.529 220.658,231.421 220.506,231.339 220.444 C 231.256 220.383,228.604 216.483,225.446 211.778 C 222.288 207.072,218.783 201.872,217.656 200.222 C 216.529 198.572,215.078 196.322,214.431 195.222 C 213.785 194.122,212.886 192.672,212.434 192.000 C 211.204 190.170,201.037 172.379,201.037 172.057 C 201.037 171.903,200.962 171.778,200.870 171.778 C 200.657 171.778,195.928 163.540,195.927 163.167 C 195.926 163.014,195.856 162.889,195.770 162.889 C 195.611 162.889,192.888 158.299,192.817 157.911 C 192.795 157.794,192.637 157.524,192.465 157.311 C 192.294 157.098,191.832 156.341,191.439 155.628 C 191.047 154.916,188.861 151.103,186.581 147.155 C 184.301 143.206,182.413 139.857,182.385 139.711 C 182.357 139.565,182.224 139.346,182.091 139.223 C 181.958 139.100,180.230 136.150,178.250 132.667 C 176.270 129.183,174.560 126.183,174.450 126.000 C 174.339 125.817,172.275 122.236,169.861 118.042 C 167.448 113.848,165.367 110.278,165.237 110.108 C 165.052 109.866,164.392 110.760,162.233 114.177 " stroke="none" fill="#ffffff" fill-rule="evenodd"></path></g></svg>